<?xml version="1.0" standalone="no"?>
<!DOCTYPE svg PUBLIC "-//W3C//DTD SVG 20010904//EN"
 "http://www.w3.org/TR/2001/REC-SVG-20010904/DTD/svg10.dtd">
<svg version="1.0" xmlns="http://www.w3.org/2000/svg"
 width="1186.000000pt" height="1186.000000pt" viewBox="0 0 1186.000000 1186.000000"
 preserveAspectRatio="xMidYMid meet">
<metadata>
Created by potrace 1.11, written by Peter Selinger 2001-2013
</metadata>
<g transform="translate(0.000000,1186.000000) scale(0.100000,-0.100000)"
fill="#000000" stroke="none">
<path d="M6347 11704 c-3 -3 -47 -7 -98 -9 -63 -3 -105 -10 -133 -24 -23 -10
-72 -30 -110 -43 -60 -20 -74 -30 -111 -78 -67 -87 -79 -116 -76 -190 7 -171
-9 -238 -59 -257 -25 -9 -30 -9 -30 3 0 8 9 24 20 36 11 12 20 25 20 29 0 15
-86 49 -110 43 -14 -3 -83 -7 -155 -9 -154 -4 -385 -15 -411 -19 -11 -2 -32 3
-49 12 -25 12 -39 13 -90 3 -66 -13 -322 -22 -682 -24 -127 -1 -235 -5 -239
-9 -4 -5 -5 -8 -3 -8 42 -4 87 -14 96 -22 7 -5 16 -7 20 -5 5 3 26 -5 46 -18
37 -22 77 -23 77 -2 0 5 9 2 19 -7 20 -18 20 -18 -5 -44 -13 -15 -24 -29 -24
-32 0 -16 -62 -39 -109 -41 -58 -3 -81 -18 -29 -20 18 -1 38 -1 43 0 6 1 -1
-8 -15 -19 -22 -17 -41 -24 -62 -21 -3 0 -21 3 -40 6 -18 3 -45 8 -60 11 -16
2 -28 0 -28 -6 0 -5 9 -11 20 -11 11 -1 29 -2 40 -3 10 0 24 -6 30 -12 9 -9 2
-13 -27 -18 -21 -4 -51 -9 -67 -12 -26 -6 -28 -4 -23 16 5 21 4 22 -40 15 -54
-8 -74 -15 -69 -24 2 -3 -18 -5 -45 -4 -53 1 -54 1 -40 -26 8 -14 4 -21 -20
-35 -17 -10 -28 -23 -26 -29 5 -16 47 -16 63 1 13 12 19 12 52 -1 46 -18 48
-18 95 0 39 16 69 6 64 -20 -1 -7 14 -13 35 -15 29 -2 46 3 74 24 20 16 41 29
48 30 33 6 92 18 154 32 63 14 33 27 -58 26 -50 -1 -90 3 -90 7 0 10 2 11 75
13 30 0 55 -2 55 -6 0 -3 9 -4 20 -1 10 3 32 -4 49 -16 37 -27 58 -27 81 1 21
27 16 42 -9 28 -10 -5 -29 -7 -42 -4 -39 9 -54 12 -54 14 0 1 -11 3 -25 6 -84
14 -50 32 65 34 l80 1 -38 20 c-22 11 -37 22 -34 25 9 9 115 15 121 6 9 -15
53 -6 100 22 79 46 132 42 74 -6 l-33 -27 30 -2 c17 0 78 -1 138 -1 59 0 110
-4 113 -9 3 -5 -2 -9 -10 -9 -24 0 -30 -1 -46 -10 -9 -5 -38 -4 -65 1 -32 6
-52 6 -59 -1 -7 -7 0 -10 20 -10 44 0 59 -13 40 -33 -11 -11 -15 -26 -11 -47
5 -30 5 -30 -40 -30 -32 0 -45 -4 -45 -14 0 -23 26 -26 77 -11 56 17 73 18 73
6 0 -5 -26 -19 -57 -32 -31 -12 -51 -25 -45 -27 7 -2 12 -8 12 -14 0 -5 9 -23
21 -39 11 -16 17 -29 12 -30 -7 -1 -97 -7 -153 -10 -50 -3 -58 0 -53 21 5 18
0 20 -43 21 -78 2 -98 4 -109 10 -5 4 -22 9 -37 13 -16 3 -28 12 -28 19 0 15
88 37 155 38 45 0 104 15 80 19 -5 1 -72 3 -147 4 -104 2 -138 0 -138 -10 0
-20 -27 -28 -117 -35 -26 -2 -45 -9 -48 -18 -8 -20 15 -32 50 -25 45 9 87 11
109 6 14 -4 8 -9 -25 -22 -61 -23 -244 -22 -277 1 -22 16 -35 17 -176 10 -28
-1 -14 -10 23 -15 43 -5 66 -26 28 -26 -31 0 -35 -15 -8 -30 34 -18 52 -41 42
-54 -6 -8 -3 -11 12 -13 32 -2 101 -14 106 -19 2 -1 -12 -10 -30 -18 -19 -8
-28 -15 -21 -15 7 -1 30 -12 52 -26 46 -29 51 -30 44 -11 -7 17 26 26 120 32
87 6 109 9 134 23 20 11 43 15 137 25 45 5 47 4 24 -7 -36 -16 -39 -29 -10
-34 13 -2 42 -9 65 -17 25 -8 50 -11 67 -6 27 8 50 7 94 -4 11 -2 25 -5 30 -6
6 0 -3 -8 -20 -17 -32 -17 -79 -20 -98 -5 -18 14 -148 7 -157 -9 -5 -7 -6 -17
-4 -21 11 -17 -77 -12 -91 5 -11 14 -57 19 -149 17 l-38 -1 30 -23 c35 -25 30
-44 -13 -52 -15 -3 -35 -9 -44 -13 -9 -5 -25 -7 -36 -5 -45 9 -124 5 -195 -11
-41 -8 -83 -17 -92 -18 -10 0 -18 -5 -18 -9 0 -4 -19 -13 -42 -19 -24 -7 -50
-19 -58 -27 -8 -8 -10 -12 -3 -8 6 3 13 1 15 -4 2 -6 29 -11 60 -12 44 -2 55
-5 47 -14 -12 -14 -5 -19 39 -29 25 -5 31 -10 22 -20 -8 -10 -2 -14 27 -20 51
-9 55 -13 43 -36 -6 -10 -7 -19 -3 -18 4 1 23 1 41 0 51 -2 38 -25 -33 -58
-50 -23 -76 -29 -112 -27 -41 3 -46 2 -31 -10 10 -7 40 -12 73 -11 52 1 68 -6
45 -20 -21 -13 12 -37 44 -32 17 2 45 -2 64 -10 18 -7 69 -14 112 -15 53 -2
76 -6 70 -12 -6 -6 -37 -9 -70 -8 -34 1 -60 -3 -60 -8 0 -6 10 -10 23 -10 41
-1 102 -12 110 -20 5 -4 -38 -6 -95 -3 -56 3 -124 6 -150 7 -27 0 -48 4 -48 8
0 4 -7 5 -15 2 -8 -4 -15 -1 -15 6 0 6 5 8 10 5 6 -3 10 -2 10 4 0 22 -173 32
-194 11 -11 -11 -15 -11 79 -15 87 -3 87 -3 81 -13 -2 -4 -32 -7 -65 -6 -34 1
-58 -2 -55 -7 3 -5 -1 -9 -8 -9 -7 0 -1 -8 15 -18 30 -18 35 -37 12 -46 -23
-9 1 -56 27 -51 12 3 18 -1 15 -8 -2 -7 -13 -13 -25 -15 -36 -5 -14 -22 28
-22 28 0 39 -5 42 -17 2 -13 18 -17 78 -20 41 -2 91 -9 110 -16 19 -7 62 -12
95 -11 58 2 59 2 26 -10 l-33 -12 33 -10 c19 -6 44 -10 57 -9 12 1 19 -1 16
-4 -3 -3 -31 -7 -62 -8 -31 -1 -68 -4 -82 -7 -14 -2 -38 -5 -54 -5 -20 -1 -27
-5 -23 -16 4 -10 -3 -16 -26 -20 -18 -4 -43 -15 -57 -26 l-25 -19 60 7 c71 8
114 8 122 -1 15 -14 1 -18 -157 -41 -20 -3 -49 -9 -65 -13 l-29 -8 44 -19 c33
-13 75 -18 153 -20 71 -1 112 -6 120 -15 10 -10 1 -11 -41 -6 -61 7 -62 -4 -1
-34 21 -11 39 -23 39 -26 0 -3 -24 -3 -52 1 -55 8 -116 7 -128 0 -11 -7 -97
-21 -144 -24 -45 -3 1 -16 57 -16 56 -1 62 -3 65 -23 3 -21 12 -26 40 -23 8 1
21 -7 31 -17 13 -15 21 -18 34 -10 13 6 31 4 62 -7 24 -10 45 -16 47 -14 2 1
14 -4 28 -11 16 -9 65 -14 140 -16 63 -1 122 -2 130 -3 27 -4 -25 -20 -87 -27
-73 -8 -94 -12 -101 -19 -3 -3 8 -5 23 -5 54 0 11 -21 -48 -24 -66 -3 -99 10
-49 20 33 7 42 18 19 27 -6 2 -47 3 -91 1 -83 -4 -113 -16 -153 -63 -29 -34
-29 -51 2 -52 14 -1 31 -2 37 -3 17 -1 22 -33 6 -33 -7 0 -24 -3 -38 -6 -14
-3 -35 -8 -48 -11 -13 -3 -37 -12 -55 -21 -32 -17 -62 -22 -144 -27 -24 -2
-43 -6 -43 -10 0 -8 17 -12 34 -9 19 4 114 12 177 15 84 5 172 -28 102 -38
-10 -2 -18 -7 -18 -11 0 -5 39 -8 88 -7 69 0 87 -2 87 -14 0 -11 -13 -13 -62
-11 -35 2 -67 5 -73 7 -16 6 -155 -10 -155 -18 0 -8 28 -12 85 -15 21 -2 32
-8 36 -22 8 -30 -14 -40 -91 -39 -75 0 -88 -8 -39 -25 43 -15 27 -34 -21 -26
-27 5 -46 2 -63 -10 -13 -8 -39 -17 -57 -20 -18 -2 -38 -9 -43 -14 -13 -13
-14 -12 43 -15 25 -2 56 -6 68 -10 22 -7 23 -9 5 -20 -10 -7 -30 -16 -45 -20
-16 -3 -28 -13 -28 -21 0 -16 9 -18 118 -17 39 0 72 -3 72 -8 0 -4 -11 -8 -25
-9 -48 -3 -54 -4 -49 -13 3 -4 11 -8 19 -8 8 0 11 -7 8 -19 -2 -10 -12 -18
-21 -18 -81 0 -106 -11 -49 -21 12 -2 27 -5 34 -6 18 -3 28 -16 15 -17 -7 -1
-15 -3 -19 -4 -5 -2 -18 -6 -30 -10 -13 -4 -23 -12 -23 -17 0 -5 -5 -6 -11 -2
-8 5 -10 0 -6 -17 5 -19 0 -29 -18 -43 -13 -10 -25 -17 -27 -15 -2 1 -13 -3
-26 -10 -22 -12 -23 -13 -5 -26 10 -7 21 -11 24 -9 4 2 5 -5 2 -16 -3 -13 0
-20 8 -21 8 -1 25 -3 39 -5 45 -6 74 -6 108 0 17 4 32 4 32 0 0 -9 -24 -30
-53 -45 l-27 -15 20 -21 c18 -20 18 -22 2 -25 -9 -2 -29 -1 -44 3 -37 10 -66
-15 -44 -37 8 -7 16 -18 18 -23 1 -5 25 -12 53 -16 27 -3 51 -8 53 -9 2 -2 18
0 37 4 23 5 40 4 51 -5 10 -7 25 -10 35 -8 10 3 38 -3 63 -12 38 -15 48 -15
61 -5 14 11 20 9 44 -17 16 -17 26 -36 22 -41 -3 -5 -28 -12 -56 -16 -79 -10
-118 -22 -111 -35 2 -3 -42 -7 -98 -8 -138 -3 -222 -9 -236 -18 -18 -11 19
-32 52 -29 32 4 34 -2 13 -33 -14 -20 -14 -22 3 -27 25 -8 212 13 260 29 9 3
10 0 3 -13 -7 -13 -20 -18 -45 -17 -30 2 -78 -13 -51 -16 10 -1 20 -2 83 -14
23 -4 32 -11 32 -25 0 -16 -7 -20 -30 -20 -16 0 -30 4 -30 8 0 10 -73 34 -107
36 -13 1 -23 -2 -23 -6 0 -5 -10 -12 -22 -17 -21 -8 -20 -9 12 -16 19 -4 44
-14 55 -21 12 -8 41 -16 65 -19 73 -10 79 -11 86 -18 4 -4 17 -7 29 -7 13 0
39 -7 60 -15 20 -9 45 -15 54 -13 10 2 26 -3 35 -11 17 -14 38 -17 163 -22 65
-3 70 -5 62 -21 -6 -11 -22 -18 -42 -19 -54 -2 -138 -7 -219 -13 -65 -6 -78
-4 -86 10 -5 10 -25 18 -47 20 -20 2 -43 8 -51 14 -7 7 -56 13 -108 15 -52 1
-99 5 -104 9 -5 3 -15 0 -21 -8 -15 -18 -3 -22 79 -26 84 -3 98 -5 140 -21
l35 -13 -30 -8 c-17 -5 -61 -10 -98 -10 -37 -1 -70 -4 -72 -8 -2 -4 6 -6 18
-6 29 3 42 -5 26 -14 -7 -5 -13 -17 -14 -28 -1 -16 2 -19 19 -12 12 4 23 9 26
10 3 2 15 -2 28 -9 13 -7 33 -14 44 -16 32 -7 32 -12 1 -43 -32 -33 -65 -42
-246 -68 -95 -13 -54 -31 93 -40 41 -3 93 -7 115 -9 22 -2 46 -4 53 -4 10 -1
10 -5 -2 -17 -9 -8 -16 -16 -16 -18 0 -1 36 -1 80 0 75 2 96 -5 68 -23 -7 -4
-20 -9 -28 -11 -18 -4 -162 -4 -248 0 -69 3 -74 -5 -23 -39 27 -18 37 -20 63
-11 20 7 32 7 37 1 9 -15 68 -43 75 -36 3 4 6 2 6 -4 0 -16 -48 -22 -84 -11
-17 5 -51 11 -75 14 -38 4 -42 3 -31 -11 7 -8 19 -15 26 -15 29 0 13 -19 -18
-22 -18 -2 -31 -7 -28 -12 5 -10 89 -9 200 1 123 11 185 9 182 -5 -1 -7 5 -15
13 -18 19 -8 20 -24 1 -24 -7 0 -24 -8 -37 -19 -13 -10 -44 -21 -69 -24 -67
-8 -100 -26 -100 -54 0 -12 -6 -23 -12 -24 -37 -2 -74 -11 -83 -20 -6 -6 13
-8 55 -4 36 2 107 7 159 10 52 3 98 8 102 10 4 3 9 0 11 -5 6 -19 269 -13 300
6 19 12 6 -7 -24 -35 -18 -17 -39 -31 -46 -31 -7 0 -10 -5 -6 -11 5 -8 -6 -10
-35 -7 -22 2 -41 1 -41 -3 0 -7 6 -6 -125 -14 -55 -3 -107 -7 -115 -9 -8 -2
-29 -7 -47 -11 -17 -4 -45 -20 -61 -36 -32 -31 -42 -33 -247 -44 -33 -2 -69
-4 -80 -4 -13 -1 -2 -10 31 -27 29 -14 62 -35 74 -47 22 -20 22 -21 4 -28 -10
-4 -34 -8 -53 -8 -71 -2 -17 -14 71 -17 67 -1 106 -8 141 -23 26 -11 48 -20
50 -20 1 0 22 -3 47 -7 35 -6 40 -9 25 -15 -11 -4 -32 -8 -47 -8 -16 -1 -28
-5 -28 -9 0 -4 46 -9 103 -10 56 -1 149 -3 207 -6 82 -4 97 -3 70 5 -19 6 -48
18 -65 27 -16 9 -31 15 -32 14 -2 -1 -6 -2 -10 -2 -5 0 0 7 11 15 13 10 24 11
37 4 11 -5 19 -8 19 -5 0 2 17 0 38 -5 20 -5 46 -12 57 -14 51 -11 105 -30
105 -36 0 -14 -27 -28 -70 -34 -85 -12 -104 -16 -115 -25 -5 -4 -29 -11 -53
-15 -23 -3 -61 -12 -83 -20 -36 -13 -43 -13 -55 0 -13 13 -11 15 13 21 56 12
85 26 71 35 -21 14 -38 10 -38 -7 0 -8 -3 -13 -7 -11 -17 11 -83 16 -83 8 0
-6 -21 -10 -47 -10 -27 0 -59 -4 -73 -9 -14 -5 -36 -6 -50 -2 -21 6 -26 4 -27
-11 -1 -11 -11 -32 -22 -48 -22 -30 -18 -40 22 -54 9 -4 17 -13 17 -21 0 -42
109 -63 168 -32 23 12 38 14 50 7 15 -8 13 -11 -13 -21 -31 -12 -188 -59 -215
-64 -97 -19 -101 -21 -80 -42 8 -8 -3 -24 -36 -52 -25 -23 -42 -42 -38 -43 5
-1 23 0 39 0 44 3 14 -14 -63 -35 l-63 -17 30 -28 c24 -21 40 -27 76 -27 25 0
45 4 45 10 0 6 6 8 13 5 6 -2 21 -1 32 3 12 4 25 2 33 -6 23 -23 186 -6 237
26 22 14 35 16 48 8 10 -5 46 -12 80 -15 34 -2 78 -6 98 -7 42 -3 62 -13 53
-27 -5 -8 -45 -6 -120 6 -11 2 -43 -1 -70 -6 -27 -6 -61 -12 -76 -14 -15 -2
-31 -6 -36 -9 -4 -2 -26 -7 -47 -9 -22 -3 -47 -8 -55 -11 -8 -3 -33 0 -55 8
-40 14 -52 14 -166 1 -74 -9 -61 -25 15 -20 132 11 140 10 133 -15 -4 -15 0
-20 15 -20 10 0 28 -4 38 -10 36 -19 122 -19 161 1 53 26 82 32 191 33 53 0
100 4 103 8 4 4 21 0 37 -8 16 -8 48 -14 72 -13 30 2 54 -4 79 -20 21 -12 37
-25 37 -28 0 -10 -54 -48 -77 -55 -13 -3 -25 -2 -28 2 -3 5 -16 6 -28 1 -12
-4 -47 -9 -77 -10 -30 -1 -74 -11 -97 -21 -24 -10 -58 -21 -76 -24 -19 -3 -58
-17 -88 -31 -30 -13 -61 -25 -71 -25 -9 0 -47 -13 -85 -30 -59 -25 -64 -29
-38 -31 44 -2 115 0 159 6 32 3 39 1 43 -15 3 -11 10 -20 17 -20 6 0 -2 -11
-19 -24 l-30 -24 40 -11 c56 -15 106 -14 151 6 22 9 47 17 57 18 19 2 23 -21
5 -28 -7 -3 0 -6 16 -6 l29 -1 -24 -19 c-13 -10 -42 -21 -64 -23 -22 -3 -51
-11 -64 -18 -14 -7 -38 -14 -55 -15 -60 -5 -211 -17 -256 -21 -89 -6 -143 -16
-130 -24 7 -5 19 -6 27 -3 8 3 13 -2 13 -15 0 -25 -26 -32 -69 -17 -25 8 -46
8 -73 1 -34 -9 -53 -26 -28 -26 6 0 10 -4 10 -9 0 -8 -70 -25 -86 -21 -4 1
-10 -4 -15 -12 -6 -9 -32 -13 -81 -14 -40 -1 -89 -5 -108 -9 -19 -4 -61 -7
-92 -8 -47 0 -58 -3 -58 -16 0 -12 -9 -17 -32 -18 -93 -2 -198 -34 -198 -59 0
-8 -3 -14 -7 -15 -5 0 -15 -2 -23 -3 -8 -2 -35 -6 -60 -9 -25 -3 -57 -10 -71
-16 -15 -5 -30 -7 -33 -4 -3 4 -6 2 -6 -4 0 -12 32 -23 68 -23 27 0 28 -14 3
-39 -23 -23 -15 -32 45 -49 28 -8 41 -18 40 -28 -1 -11 10 -17 39 -19 98 -9
124 -14 142 -23 17 -10 17 -11 1 -17 -33 -13 -18 -23 28 -20 32 2 47 -2 51
-12 9 -23 -12 -35 -64 -37 -26 -1 -54 -5 -62 -10 -10 -6 -12 -5 -7 2 5 8 -1
12 -16 12 -13 0 -34 7 -47 16 -18 13 -36 15 -84 10 -71 -7 -93 -21 -41 -24 31
-2 90 -29 82 -37 -2 -2 -19 -6 -39 -9 -20 -3 -47 -9 -60 -14 -13 -5 -54 -7
-91 -5 l-67 3 9 -31 c5 -18 7 -36 4 -40 -7 -12 9 -17 87 -23 93 -8 130 -17
126 -30 -2 -6 -22 -12 -45 -12 -81 -3 -84 -3 -80 -21 2 -14 14 -18 48 -20 25
-1 70 -4 100 -7 30 -2 62 -5 70 -6 10 0 7 -6 -10 -20 l-25 -20 25 -1 c14 0 55
0 93 1 37 1 67 -2 67 -7 0 -4 20 -30 45 -57 25 -26 45 -52 45 -57 0 -5 -24 -9
-53 -9 -43 0 -60 -5 -83 -25 -16 -14 -32 -25 -35 -25 -3 0 -4 -10 -2 -22 2
-13 -12 -75 -31 -139 -27 -89 -34 -130 -33 -182 1 -37 -2 -68 -6 -70 -12 -4
-16 -40 -6 -59 14 -26 1 -45 -29 -45 -15 1 -47 -3 -72 -8 -25 -4 -52 -7 -60
-6 -12 2 -11 -1 3 -16 13 -13 34 -18 85 -19 37 -1 69 -2 73 -3 3 -1 6 -19 8
-42 l2 -41 -56 4 c-52 4 -56 3 -53 -16 2 -17 10 -21 41 -21 20 0 37 -3 37 -7
0 -5 -15 -8 -32 -8 -18 0 -50 -5 -70 -11 -31 -8 -38 -15 -38 -34 0 -18 -6 -25
-18 -25 -11 0 -23 -10 -29 -23 -6 -13 -31 -30 -61 -41 -60 -23 -85 -60 -49
-72 12 -5 24 -9 27 -9 3 -1 24 -7 48 -14 57 -16 168 2 220 36 31 19 52 10 52
-22 0 -19 -5 -25 -22 -24 -40 1 -123 -13 -126 -22 -2 -5 -9 -9 -17 -9 -14 0
-167 -49 -174 -55 -7 -7 63 2 108 14 57 16 63 8 10 -13 -60 -24 -51 -30 71
-41 70 -6 98 -20 59 -29 -81 -19 -164 -34 -170 -30 -4 2 -10 0 -14 -6 -4 -6
10 -10 35 -10 23 0 51 -5 63 -12 12 -6 44 -13 70 -14 41 -1 50 2 57 20 4 11 6
24 4 27 -2 4 7 9 21 11 19 4 26 -1 34 -21 6 -14 10 -39 10 -56 -1 -16 2 -67 5
-111 l6 -82 -28 -10 c-82 -31 -73 -28 -131 -42 -24 -6 -50 -9 -57 -6 -6 2 -20
-2 -31 -10 -16 -13 -8 -14 77 -9 52 4 98 9 102 11 4 3 8 -4 8 -14 0 -13 -9
-21 -27 -25 -16 -3 -37 -12 -47 -20 -18 -13 -13 -16 55 -37 l74 -22 -45 -18
c-25 -9 -93 -30 -152 -45 -98 -25 -106 -29 -97 -46 11 -22 8 -21 74 -23 28 -1
55 -4 60 -8 11 -6 48 -11 78 -9 9 1 22 12 28 25 12 26 31 35 92 42 39 5 40 4
51 -47 5 -23 1 -26 -42 -38 -81 -21 -249 -107 -255 -130 -3 -12 -4 -21 -3 -21
2 0 29 9 62 19 124 39 224 54 142 20 -44 -17 -59 -38 -52 -71 3 -15 1 -35 -4
-44 -8 -15 -11 -15 -31 5 -17 17 -25 20 -36 11 -8 -6 -31 -13 -52 -15 -21 -2
-49 -6 -62 -9 -14 -3 -29 -2 -35 3 -24 19 -76 22 -131 6 -69 -20 -155 -64
-162 -82 -3 -7 -11 -13 -19 -13 -8 0 -14 -5 -14 -10 0 -6 -19 -19 -43 -29 -83
-38 -132 -59 -157 -66 -14 -4 -28 -13 -32 -19 -11 -17 24 -25 52 -11 14 7 45
16 70 20 25 4 52 9 60 10 70 13 110 14 110 5 0 -6 -4 -9 -9 -6 -14 9 -44 -20
-45 -45 -1 -26 -14 -30 -58 -18 -15 4 -27 4 -27 1 1 -4 1 -17 0 -29 -1 -20 -3
-21 -26 -11 -19 9 -28 9 -37 0 -9 -9 -9 -12 -1 -12 6 0 27 -15 47 -34 20 -20
36 -30 39 -23 2 7 26 12 53 13 73 2 105 11 215 60 56 25 115 44 135 44 25 0
41 7 57 26 12 14 29 26 37 28 60 10 92 44 64 67 -17 14 -32 18 -78 22 -22 1
-32 9 -39 30 -11 33 1 51 43 66 27 9 30 7 50 -26 19 -33 23 -35 58 -28 48 9
55 14 49 36 -7 26 11 37 71 41 37 3 52 1 48 -7 -2 -7 -1 -27 3 -46 9 -39 -12
-85 -41 -95 -27 -8 -22 -23 12 -31 l31 -8 -38 -37 c-34 -33 -45 -37 -108 -42
-131 -11 -155 -18 -155 -46 0 -16 -7 -20 -32 -21 -18 0 -42 -3 -53 -5 -11 -2
-28 -5 -37 -6 -10 -1 -18 -6 -18 -10 0 -3 -8 -6 -17 -6 -31 2 -217 -44 -233
-58 -8 -7 -27 -10 -42 -7 -15 3 -36 2 -45 -2 -10 -5 -27 -7 -39 -6 -17 2 -20
-3 -18 -28 2 -24 -3 -32 -27 -42 -16 -6 -32 -16 -36 -22 -3 -5 -1 -7 5 -3 6 3
35 9 66 12 46 5 56 4 56 -9 0 -8 16 -29 35 -45 32 -29 43 -31 95 -23 3 1 -2 6
-10 11 -8 5 -10 10 -5 10 6 0 16 4 24 9 12 8 12 13 3 24 -10 12 -7 16 20 22
18 4 36 9 41 10 4 1 25 3 47 4 34 1 43 6 60 34 16 25 20 28 20 12 0 -19 1 -19
18 2 33 41 153 70 165 40 4 -12 15 -13 49 -6 70 12 98 3 98 -34 -1 -46 -24
-61 -115 -73 -22 -3 -62 -13 -88 -22 -38 -13 -54 -14 -77 -5 -32 12 -26 16
-96 -69 -7 -10 -26 -19 -41 -19 -16 -1 -41 -2 -58 -4 -16 -1 -77 -6 -135 -9
-153 -10 -162 -13 -153 -46 4 -16 0 -20 -18 -20 -21 -1 -22 -2 -7 -10 9 -6 47
-20 85 -31 37 -12 72 -24 76 -28 13 -13 -3 -40 -26 -43 -12 -2 -22 -10 -22
-18 0 -11 13 -16 49 -18 27 -2 55 -1 62 2 8 3 16 6 19 7 8 3 95 16 95 14 0 -1
-5 -16 -11 -33 -9 -26 -18 -33 -47 -37 -98 -15 -109 -26 -88 -77 8 -18 -23
-44 -59 -51 -97 -18 -145 -33 -145 -44 0 -11 65 -20 103 -14 14 2 7 -20 -8
-25 -30 -12 -14 -20 40 -19 38 0 55 -3 55 -12 0 -7 5 -14 10 -14 13 -2 14 -2
76 -18 29 -7 82 -11 120 -9 56 2 69 0 72 -13 2 -13 -9 -15 -73 -14 -42 0 -79
-3 -81 -7 -3 -4 0 -8 5 -8 6 0 11 -5 11 -11 0 -5 -5 -7 -10 -4 -17 11 -108 18
-136 11 -20 -5 -24 -10 -15 -19 18 -18 13 -23 -21 -23 -18 -1 -58 -5 -88 -9
-58 -9 -139 -11 -205 -4 l-40 4 -3 -548 -2 -547 2308 0 2309 0 11 25 c6 13 29
33 51 45 42 21 121 28 121 10 0 -5 -11 -10 -24 -10 -44 0 -85 -12 -91 -27 -8
-22 12 -42 38 -38 22 4 101 14 144 19 13 2 28 8 35 14 7 5 27 12 43 14 30 3
32 8 20 40 -5 13 2 22 30 35 35 17 36 19 32 65 -2 26 0 48 5 48 4 0 7 3 7 8
-5 32 4 54 26 62 14 5 25 12 25 15 0 4 -3 4 -8 1 -7 -4 -106 -9 -457 -22 -66
-2 -156 -6 -200 -9 -44 -2 -156 -7 -250 -9 -93 -3 -237 -8 -320 -12 -82 -3
-194 -7 -247 -8 -54 0 -98 -3 -98 -6 0 -11 -160 -4 -172 8 -9 9 -8 12 5 12 9
0 18 0 20 -1 1 0 16 5 32 11 46 18 61 20 185 25 63 3 178 8 255 11 77 3 183 7
235 9 52 2 154 6 225 9 72 3 195 8 275 11 319 12 420 15 535 20 136 6 243 10
500 19 195 7 346 13 550 22 72 3 151 6 177 6 38 1 50 5 63 24 8 13 15 30 15
39 0 28 53 39 92 19 35 -18 97 -18 141 1 44 18 40 19 64 -3 26 -22 148 -24
148 -3 0 7 23 22 50 33 46 18 87 24 214 31 58 4 64 22 10 31 -38 6 -41 9 -35
31 5 21 3 25 -16 26 -13 0 -32 2 -43 4 -11 3 -29 2 -39 -2 -19 -5 -19 -6 -1
-19 10 -7 23 -11 29 -8 6 3 3 -1 -8 -10 -10 -8 -38 -18 -63 -22 -42 -6 -166
-1 -208 10 -11 2 -24 5 -28 5 -5 1 -6 4 -4 9 3 4 39 6 81 6 42 -1 76 0 76 3 0
2 -5 13 -10 24 -6 11 -7 19 -3 18 4 -1 21 -1 38 0 52 2 12 23 -52 27 -128 8
-170 7 -225 -5 -31 -7 -65 -12 -75 -12 -10 1 -81 4 -158 7 -133 5 -234 5 -336
0 -35 -2 -49 2 -57 15 -9 14 -8 18 6 17 17 0 336 12 359 14 7 1 10 4 9 7 -2 3
-106 6 -230 5 -214 -1 -227 0 -237 18 -13 24 -48 38 -74 28 -12 -5 -32 -2 -50
8 -33 17 -32 17 45 37 l45 12 -44 14 -44 13 37 32 c42 36 44 44 14 44 -46 0 2
17 55 19 29 1 61 3 72 5 11 2 29 -1 40 -7 18 -9 93 -10 207 -2 21 1 43 6 50
12 20 14 87 16 104 2 20 -16 69 -14 95 5 19 13 25 13 50 0 31 -16 33 -16 67
-3 14 5 21 5 18 0 -4 -5 9 -6 29 -1 19 4 35 6 35 4 0 -3 10 1 23 8 12 6 40 13
62 14 22 1 112 5 200 9 213 9 255 12 262 19 9 8 -17 36 -34 36 -12 0 -12 2 1
15 15 16 13 32 -14 90 -5 11 -14 38 -20 60 -7 22 -18 49 -25 61 -22 34 -39
144 -24 158 8 8 13 8 16 -1 3 -7 9 -13 15 -13 16 0 2 55 -43 165 -10 27 -32
99 -32 105 1 3 -4 14 -10 25 -6 11 -12 27 -14 36 -1 9 -7 27 -12 40 -5 13 -10
29 -11 34 -1 6 -11 31 -21 58 -10 26 -16 47 -13 47 4 0 1 6 -5 13 -12 15 -5
27 16 27 7 0 13 -11 13 -24 0 -25 25 -43 35 -25 4 5 18 7 33 4 15 -3 61 -7
102 -10 41 -3 82 -7 91 -10 20 -7 31 6 21 22 -4 5 -29 20 -56 32 -48 21 -48
22 -31 41 10 11 22 17 28 13 6 -3 7 -1 3 5 -4 7 -24 12 -44 12 -20 0 -57 7
-81 15 -24 9 -51 13 -61 10 -10 -3 -27 -8 -37 -10 -10 -2 -28 -7 -39 -10 -23
-7 -30 7 -121 255 -65 175 -71 202 -46 193 39 -15 74 -41 64 -47 -15 -10 -14
-26 3 -32 20 -8 156 56 150 70 -3 7 1 13 8 14 23 1 77 13 131 27 4 2 10 3 15
4 4 1 -1 8 -11 15 -16 12 -14 14 23 24 22 5 40 6 40 1 0 -5 -6 -9 -12 -10 -7
0 0 -5 16 -10 28 -8 56 2 56 20 0 7 -139 59 -171 65 -50 9 -58 17 -57 59 0 49
25 118 42 116 6 -1 22 -1 35 0 20 1 21 3 11 16 -8 10 -18 12 -28 6 -23 -13
-50 -2 -56 25 -4 13 -4 54 -1 89 4 36 3 65 -2 65 -4 0 -21 12 -36 26 -18 17
-41 27 -62 27 -19 1 -31 5 -28 11 10 16 14 88 5 100 -10 12 10 103 21 99 17
-7 25 -1 31 21 5 21 10 23 53 20 61 -4 83 3 83 24 0 33 18 46 62 46 36 1 43 4
43 21 0 28 -31 57 -68 63 -70 11 -115 7 -136 -12 -21 -19 -21 -19 -22 0 0 10
-1 34 -2 52 -1 17 0 32 3 32 3 0 5 27 4 60 0 41 3 61 13 64 12 5 12 -11 -2
-59 -1 -5 1 -20 6 -33 l8 -22 49 35 c46 32 72 42 115 44 9 1 27 12 38 25 12
14 29 23 40 21 11 -2 19 0 19 4 0 14 -27 32 -49 34 -27 2 -26 4 4 19 24 13 24
15 9 36 -8 12 -23 22 -32 22 -16 1 -16 1 1 11 32 19 18 27 -43 25 -32 -2 -63
0 -68 3 -13 9 -22 41 -12 42 6 1 15 3 20 4 6 1 16 3 23 4 9 1 8 4 -2 10 -15
10 -7 13 55 26 18 3 39 14 48 24 25 28 -1 42 -84 46 -64 3 -118 23 -113 42 4
16 35 23 73 14 34 -8 39 -7 29 5 -6 8 -15 12 -19 9 -16 -10 -21 14 -8 34 16
25 13 28 -42 36 -63 9 -81 15 -74 26 3 5 10 7 15 3 5 -3 53 -5 107 -4 53 1
107 1 120 1 30 -1 20 14 -24 35 -42 20 -39 25 18 29 55 3 55 4 41 13 -7 4 -27
8 -45 7 -20 0 -39 7 -48 18 -10 11 -47 23 -107 34 -71 12 -93 20 -93 32 0 13
12 16 58 17 131 3 200 9 196 15 -8 13 -68 22 -159 24 -111 3 -104 1 -102 23 1
15 10 17 76 14 62 -3 73 -1 64 10 -10 11 1 14 65 16 42 2 79 5 81 8 3 2 -4 10
-14 18 -14 10 -26 11 -51 3 -34 -10 -70 5 -58 24 3 5 -5 10 -18 10 -13 1 -32
3 -43 5 -11 2 -40 6 -65 9 -53 7 -64 16 -66 54 -2 37 -54 147 -88 186 -14 17
-26 35 -26 41 0 7 -7 14 -15 18 -17 6 -20 26 -5 26 6 0 20 9 31 19 12 11 30
18 43 15 11 -2 41 -7 65 -10 25 -3 47 -6 50 -6 3 -1 18 2 34 6 17 5 39 3 57
-4 25 -10 34 -9 62 7 45 26 48 49 6 56 -18 3 -46 4 -63 2 -16 -3 -82 -7 -145
-11 -91 -4 -119 -3 -134 9 -19 14 -19 15 1 25 11 6 38 14 60 18 34 5 44 2 68
-20 15 -14 31 -26 35 -26 18 0 18 15 -1 41 -11 16 -17 29 -12 29 4 1 -8 8 -27
16 -41 18 -110 21 -136 6 -14 -8 -23 -7 -35 4 -11 10 -42 15 -88 17 l-72 2 4
38 c4 32 1 40 -17 47 -27 10 -40 2 -25 -16 6 -8 8 -14 3 -14 -19 1 -176 38
-181 44 -3 3 -21 -1 -40 -9 -41 -17 -53 -13 -53 19 0 26 0 26 193 29 l119 2
13 33 c9 21 21 32 35 32 11 0 20 5 20 10 0 10 -174 5 -191 -5 -4 -3 -12 1 -18
9 -17 21 10 37 71 42 70 5 90 13 86 32 -2 10 -27 23 -71 36 -37 11 -67 24 -67
29 0 4 16 15 36 23 34 14 38 14 102 -17 94 -44 198 -77 214 -68 7 5 24 5 38 2
13 -4 34 -7 45 -8 11 -1 33 -5 48 -10 20 -5 33 -3 47 10 10 9 33 18 50 19 23
0 32 7 36 23 3 12 12 24 20 27 23 9 4 36 -26 36 -15 0 -39 9 -53 20 -31 25
-37 25 -37 2 0 -16 -9 -18 -81 -17 -74 2 -83 4 -100 26 -11 15 -14 28 -8 34
11 11 12 25 2 24 -5 -1 -15 0 -23 1 -30 4 57 21 123 24 62 3 105 15 61 17 -41
3 -121 9 -159 13 -22 2 -46 5 -53 5 -7 1 -11 5 -8 9 3 5 23 8 46 6 22 -1 40 1
40 6 0 12 -21 17 -55 15 -16 -1 -72 -6 -124 -9 -52 -4 -98 -9 -103 -12 -4 -3
-8 -1 -8 5 0 9 20 15 90 26 19 3 49 8 65 11 27 6 147 11 375 17 47 1 98 -1
113 -5 24 -6 28 -4 25 11 -2 10 3 25 11 34 7 10 10 17 5 18 -5 1 -50 2 -99 3
-50 2 -100 8 -110 14 -18 10 -16 12 15 13 19 0 46 5 60 9 21 7 22 8 5 10 -11
1 -55 2 -99 1 -68 -1 -77 1 -66 14 10 12 58 27 95 30 6 0 38 -5 73 -11 44 -8
64 -8 69 -1 4 6 1 13 -5 15 -9 3 -9 9 -1 23 12 23 3 43 -17 35 -8 -3 -13 -2
-13 2 4 26 -3 31 -38 26 -51 -7 -193 -5 -193 2 0 1 4 14 10 28 8 23 6 26 -28
37 -20 7 -70 14 -110 14 -52 1 -76 5 -83 16 -11 18 -12 32 0 24 5 -3 12 -1 15
4 3 5 15 7 26 4 11 -3 20 -1 20 4 0 5 10 9 23 9 107 1 138 5 131 17 -6 9 -5 9
8 0 8 -7 17 -11 19 -9 2 3 36 7 74 9 39 3 81 10 94 15 l24 9 -23 16 -24 16 40
17 c21 9 49 20 62 25 63 24 -44 35 -201 20 -4 -1 -12 -13 -17 -27 -10 -27 -23
-28 -105 -10 -21 4 -120 15 -197 21 -44 3 -46 2 -36 -15 7 -10 15 -17 19 -14
4 2 10 -3 13 -12 3 -8 2 -13 -3 -10 -5 3 -26 8 -47 11 -69 11 -75 14 -64 36
12 21 6 25 -39 31 -14 2 -26 8 -28 14 -4 11 127 11 197 -1 32 -5 40 -4 40 8 0
21 -48 35 -132 41 -20 2 -47 9 -60 17 -13 8 -29 14 -35 13 -7 -1 -20 -2 -29
-3 -10 -1 -14 -7 -10 -16 3 -10 -1 -15 -14 -15 -32 0 -32 -17 0 -24 17 -3 30
-10 30 -15 0 -5 -15 -5 -37 0 -21 6 -43 11 -49 12 -24 6 -42 33 -33 49 8 14 4
16 -20 13 -22 -3 -30 1 -34 16 -5 18 -2 19 31 14 47 -9 134 -14 292 -19 106
-3 130 -6 161 -25 36 -21 107 -30 278 -35 76 -2 96 9 72 38 -14 17 -4 25 32
28 14 1 23 7 20 14 -3 8 -16 9 -46 2 -56 -13 -138 -3 -186 22 -22 11 -42 23
-45 28 -2 4 30 7 72 7 93 -1 112 3 112 22 0 8 5 11 12 7 6 -4 8 -3 5 2 -10 17
7 30 65 48 91 28 102 58 25 72 -33 5 -38 8 -22 14 18 6 17 8 -10 23 -25 13
-27 17 -13 22 9 4 25 2 35 -3 35 -20 104 45 83 78 -6 10 -15 7 -40 -13 -17
-15 -41 -27 -53 -28 -12 0 -30 -2 -40 -4 -11 -2 -16 2 -14 8 2 7 9 13 15 13 7
1 17 2 23 3 5 0 7 6 4 11 -3 6 -21 7 -38 4 -18 -3 -45 -7 -62 -8 -16 -2 -55
-7 -86 -11 -38 -5 -59 -3 -63 4 -5 7 2 11 17 11 13 0 27 3 31 8 8 7 13 8 42
11 10 1 13 7 10 19 -6 16 3 18 86 21 117 3 157 7 165 15 10 9 -38 57 -71 71
l-29 13 36 23 c35 23 49 49 27 49 -6 0 -15 11 -19 23 -8 20 -17 24 -50 24 -23
0 -41 -4 -41 -9 0 -4 5 -8 10 -8 6 0 10 -4 10 -9 0 -6 -10 -8 -22 -5 -28 6
-94 15 -130 17 -15 1 -30 5 -33 9 -4 4 -13 4 -21 1 -16 -6 -62 38 -57 54 3 7
29 9 71 6 71 -5 117 -10 117 -13 0 -1 42 -2 94 -3 66 -1 96 2 99 11 2 8 -10
12 -40 13 -76 1 -149 9 -223 25 -16 4 -38 7 -47 8 -10 0 -18 7 -18 15 0 34 61
51 114 32 17 -7 27 -6 35 2 13 17 2 32 -34 44 -31 10 -44 10 -128 -2 -26 -4
-53 -3 -60 2 -6 5 -66 11 -131 12 -122 3 -138 4 -168 16 -14 6 -18 2 -18 -17
0 -22 -3 -24 -37 -20 -21 2 -46 11 -56 20 -11 10 -21 12 -25 7 -4 -6 -18 -10
-32 -11 -67 -3 -156 -16 -196 -30 -24 -8 -68 -14 -96 -13 -29 1 -62 -1 -73 -4
-103 -28 -159 -37 -168 -28 -8 8 -6 11 6 11 9 0 18 0 20 1 1 0 24 5 51 10 100
18 127 29 136 54 8 21 13 23 34 16 13 -6 26 -7 29 -5 3 3 16 7 29 9 66 9 104
18 116 27 6 6 12 8 12 5 0 -2 29 2 65 9 48 10 83 11 137 4 40 -5 82 -9 93 -9
17 0 16 2 -5 11 -14 6 -28 12 -32 13 -5 2 -9 3 -10 5 -2 1 -12 3 -23 5 -52 10
-115 29 -115 36 0 4 17 6 38 5 22 0 36 3 35 10 -1 7 22 10 71 8 49 -2 79 1 91
10 13 9 14 13 4 14 -23 2 -90 11 -126 17 -19 3 -58 5 -86 4 -255 -4 -571 -3
-580 3 -7 5 -2 8 13 9 14 1 48 2 75 4 28 1 79 6 115 11 77 10 402 10 479 0 39
-5 58 -3 70 7 9 7 21 13 26 12 6 -1 42 -5 80 -10 39 -4 77 -9 85 -11 8 -1 22
-3 31 -3 11 -1 16 -10 15 -28 -1 -26 2 -28 44 -30 25 -1 53 -4 62 -7 10 -2 18
-1 18 3 0 4 -20 12 -44 19 -33 9 -44 16 -43 30 1 16 9 18 81 15 169 -7 216 -6
234 5 14 9 6 42 -10 42 -14 0 -41 30 -34 38 4 3 27 6 51 5 43 -2 43 -1 24 18
-10 10 -29 21 -41 22 -18 3 -34 23 -37 47 -1 5 45 11 97 14 12 0 22 7 22 14 0
7 -4 10 -10 7 -5 -3 -10 -2 -10 4 0 5 -12 12 -27 15 -38 8 -134 19 -156 18 -9
0 -15 3 -12 8 3 5 1 11 -5 15 -21 13 -8 23 25 18 37 -5 47 11 23 35 -9 9 -9
12 3 13 16 1 79 -1 126 -5 25 -2 30 1 22 11 -6 7 -14 12 -17 11 -24 -3 -42 4
-42 16 0 8 -27 23 -63 36 -68 24 -86 53 -44 70 21 8 20 9 -10 20 -21 7 -33 19
-33 30 0 30 -33 45 -120 57 -19 2 -42 5 -50 7 -8 1 -19 4 -25 7 -5 4 -30 5
-55 3 -25 -2 -57 -5 -72 -5 -17 -1 -24 -6 -21 -15 4 -10 -4 -12 -34 -8 -21 3
-62 6 -91 8 -50 3 -77 11 -49 14 6 1 30 4 52 7 99 14 104 17 86 39 -11 13 -3
14 56 11 38 -2 82 -11 99 -20 26 -14 30 -13 41 2 13 17 98 29 107 15 3 -5 -9
-9 -27 -10 -31 -3 -44 -8 -36 -16 3 -3 43 -13 91 -24 76 -16 85 -17 80 -3 -3
9 -10 20 -16 24 -6 5 24 6 67 2 53 -4 77 -2 72 5 -3 5 -23 10 -43 11 -20 0
-46 4 -57 9 -17 8 -16 9 10 11 17 1 36 2 44 2 9 -1 10 2 2 10 -6 6 -52 12
-103 13 -51 1 -106 4 -123 7 -46 7 -178 20 -197 19 -10 0 -18 3 -18 7 0 5 72
8 159 7 110 -1 164 3 172 11 8 8 -3 11 -45 10 -56 -2 -57 -2 -36 15 19 15 20
19 6 24 -31 12 -12 31 39 39 51 8 142 19 158 18 9 0 17 4 17 9 0 6 9 21 20 35
31 39 25 50 -34 64 l-53 12 13 26 c12 24 19 27 56 25 44 -2 94 14 53 17 -75 5
-103 18 -89 41 3 4 -8 8 -25 8 -16 0 -33 5 -36 10 -3 6 2 10 12 10 11 0 23 4
29 9 5 6 36 16 68 23 93 20 80 34 -29 33 -80 -2 -99 1 -117 17 -19 16 -56 24
-83 18 -10 -3 -30 -5 -115 -13 -25 -3 -61 -7 -80 -11 -38 -6 -143 -14 -202
-15 -21 -1 -38 -5 -38 -11 0 -5 6 -7 14 -4 8 3 17 0 22 -7 4 -8 3 -10 -4 -5
-7 4 -12 3 -12 -3 0 -6 -17 -9 -42 -6 -102 10 -153 16 -156 19 -7 8 66 42 83
39 30 -5 136 -6 168 -2 43 5 32 20 -12 16 -52 -5 -78 10 -33 19 25 5 32 11 32
30 0 13 6 24 13 24 6 0 23 3 36 7 20 5 23 3 18 -10 -4 -10 -3 -18 1 -18 82
-15 184 -11 222 7 27 14 30 18 16 26 -9 5 -21 6 -26 3 -6 -3 -10 -1 -10 4 0 6
-7 11 -15 11 -8 0 -15 -4 -15 -8 0 -5 -7 -9 -15 -9 -23 0 -18 22 10 37 32 17
71 18 118 3 21 -7 51 -11 67 -9 21 2 27 0 23 -11 -3 -7 -10 -13 -17 -12 -6 1
-20 0 -31 -1 -17 -2 -16 -3 5 -9 25 -8 190 -4 198 4 9 9 -51 25 -95 25 -64 0
-46 12 24 16 38 3 60 9 66 19 4 8 15 15 24 15 27 0 2 16 -52 34 -47 15 -270
24 -346 14 -28 -3 -129 40 -129 55 0 9 218 3 255 -7 40 -10 106 -13 111 -5 3
5 -5 9 -18 10 -29 1 -73 6 -118 14 -19 4 -46 9 -59 11 -32 6 -65 30 -52 38 5
4 13 2 16 -4 4 -6 12 -7 18 -3 7 5 19 8 27 7 8 -1 30 -2 49 -3 26 -1 32 -4 27
-17 -5 -13 3 -15 57 -12 40 2 69 9 80 19 14 13 36 16 101 15 82 -2 82 -2 78
21 -3 18 -15 26 -48 34 -48 12 -50 29 -3 29 18 0 29 5 29 14 0 9 -12 14 -37
14 -23 0 -41 6 -50 17 -10 14 -30 19 -95 21 -46 2 -83 3 -83 4 0 1 -12 3 -27
5 -33 4 -35 -1 -7 -23 19 -16 18 -17 -35 -16 -31 0 -58 3 -61 6 -7 7 52 58 68
59 7 0 23 3 37 6 44 8 184 10 213 2 32 -9 37 6 5 17 -20 6 -20 8 -5 19 29 21
31 21 -113 24 -53 1 -60 3 -60 21 0 23 0 23 36 10 17 -7 30 -7 38 0 7 5 50 8
97 6 46 -2 93 0 104 5 16 6 14 8 -12 8 -25 1 -33 5 -33 19 0 39 -62 67 -147
67 -62 0 -53 15 10 17 49 1 61 2 80 8 4 1 13 3 19 4 7 0 14 8 16 17 3 19 -33
36 -72 34 l-30 -2 23 18 c25 21 56 25 66 9 8 -13 35 -13 35 0 0 6 -7 10 -16 8
-21 -4 -27 29 -8 36 17 7 19 27 2 25 -32 -4 -48 2 -48 19 0 11 -8 18 -21 19
-11 1 -29 13 -40 27 -11 14 -26 25 -32 23 -7 -1 -11 5 -10 13 2 12 -7 16 -35
17 -20 0 -50 2 -66 3 -15 1 -31 -2 -35 -7 -7 -10 -84 -10 -186 1 -73 8 -85 12
-85 25 0 12 66 14 235 8 51 -2 108 2 132 9 23 6 44 9 47 6 4 -3 6 2 6 11 0 11
-12 18 -37 22 -76 13 -148 28 -162 35 -13 7 27 19 112 35 106 20 109 21 105
42 -2 13 9 22 45 33 26 8 52 21 56 29 6 9 20 12 40 9 18 -3 31 0 31 6 0 6 7
24 15 40 14 26 14 31 -1 47 -9 10 -13 22 -10 27 14 23 -25 34 -102 31 -76 -4
-78 -3 -74 18 l4 23 -65 -23 c-36 -13 -84 -22 -110 -21 -37 1 -44 -1 -40 -14
4 -8 2 -13 -3 -9 -5 3 -33 -1 -63 -9 -45 -11 -55 -11 -67 1 -12 12 -11 16 8
29 22 16 22 16 -15 16 -47 0 -42 12 12 30 32 10 49 11 79 2 30 -9 48 -8 87 4
28 8 51 14 53 14 26 -3 42 3 42 15 0 11 -6 12 -22 6 -13 -5 -31 -5 -41 -2 -17
6 -16 9 7 36 34 40 33 48 -9 43 -19 -2 -35 -1 -35 3 0 11 29 31 38 26 4 -3 14
-2 22 3 11 7 11 11 1 24 -21 25 16 21 78 -9 28 -14 57 -23 62 -19 6 3 16 -2
23 -11 11 -15 13 -15 25 -1 8 9 22 16 32 16 32 0 31 20 -1 27 -18 3 -34 12
-37 19 -3 8 -11 14 -19 14 -17 0 -18 16 -2 26 6 4 32 7 57 6 35 0 40 2 21 7
-14 4 -34 7 -45 6 -14 -1 -21 4 -22 17 -2 21 -4 20 62 24 28 1 53 3 58 3 4 1
7 6 7 11 0 7 -40 9 -112 7 l-111 -3 39 17 39 17 -44 -1 c-34 -1 -47 4 -61 21
-10 12 -23 22 -29 22 -6 0 -11 5 -11 11 0 5 5 7 10 4 6 -3 10 -2 10 3 0 5 -38
9 -86 8 -52 -1 -89 3 -95 10 -5 6 -20 10 -34 8 -14 -1 -25 3 -25 10 0 7 -10
12 -22 13 -13 0 -39 4 -59 7 -20 4 -70 8 -112 9 -83 2 -92 11 -22 21 25 4 45
12 45 18 0 6 -9 8 -20 5 -11 -3 -18 -1 -15 4 6 9 66 23 76 17 3 -2 14 4 24 12
11 8 16 10 11 3 -5 -9 -2 -11 8 -7 9 3 13 10 10 15 -3 5 6 9 20 9 14 0 26 5
26 10 0 6 -3 9 -7 9 -26 -4 -33 4 -9 10 16 3 31 11 33 17 4 13 -48 34 -86 34
-18 0 -22 3 -13 9 7 4 15 16 16 27 2 14 12 19 39 19 20 1 40 4 44 8 5 6 -12
10 -19 5 -2 -1 -14 4 -27 12 l-24 12 41 20 c74 33 51 44 -48 23 -73 -16 -97
-16 -97 -1 0 8 3 15 6 14 3 0 17 0 31 1 22 1 23 3 7 12 -9 6 -27 12 -40 15
-27 6 -38 9 -57 17 -8 3 -33 11 -54 18 l-39 12 32 16 c39 21 32 31 -15 21 -25
-6 -34 -5 -34 5 0 9 -14 13 -45 12 -34 -2 -45 -6 -45 -18 0 -9 -6 -17 -12 -16
-47 1 -51 -5 -14 -23 31 -14 44 -16 63 -7 12 5 23 14 23 19 0 5 5 6 10 3 6 -3
10 -22 10 -41 l0 -35 -30 16 c-16 8 -33 15 -37 15 -5 1 -26 6 -48 12 -49 13
-119 12 -147 -3 -13 -7 -18 -7 -14 -1 3 6 -4 18 -16 26 -20 14 -24 14 -46 0
-18 -12 -30 -14 -47 -6 -27 12 -50 0 -42 -22 9 -22 -4 -20 -67 11 -33 16 -52
31 -49 39 3 9 -5 12 -26 12 -49 -2 -47 9 4 16 25 4 43 11 40 16 -3 4 -17 5
-33 1 -21 -6 -32 -3 -48 15 -24 25 -55 24 -129 -2 -59 -22 -75 -24 -75 -12 0
6 -3 9 -6 5 -8 -8 -84 30 -84 43 0 18 28 24 148 36 30 3 69 13 88 23 l34 19
-31 12 c-17 7 -41 14 -54 14 -31 2 -42 14 -21 22 9 3 16 12 16 19 0 7 7 18 15
25 28 23 -2 34 -86 31 -27 -1 -41 -7 -53 -26 -16 -24 -16 -24 24 -36 51 -15
43 -27 -16 -24 -35 1 -52 -3 -66 -17 -26 -26 -56 -35 -103 -31 -142 13 -150
12 -136 -16 9 -15 5 -18 -27 -19 -20 -1 -60 -8 -89 -16 -45 -12 -54 -12 -64 1
-14 16 -34 13 -103 -18 -29 -12 -44 -24 -37 -28 8 -5 6 -23 -7 -66 -18 -55
-21 -59 -63 -71 -33 -10 -45 -10 -51 -2 -3 7 -5 15 -3 18 2 4 5 27 6 52 2 41
5 46 36 57 18 7 33 16 33 21 0 19 -13 40 -21 34 -5 -3 -9 -2 -8 3 1 4 0 10 -1
13 -11 29 -13 69 -6 100 4 14 7 36 8 51 1 34 -90 237 -111 244 -9 3 -38 26
-66 51 -50 46 -230 174 -245 174 -4 0 -13 7 -20 15 -7 9 -15 13 -17 11 -3 -3
-16 -1 -30 5 -24 9 -45 13 -118 24 -23 3 -50 7 -62 9 -12 3 -23 2 -26 0z
m1583 -792 c35 5 38 -2 10 -19 -20 -13 -46 -8 -67 13 -16 15 -4 27 13 13 8 -6
27 -9 44 -7z m-3543 -1267 c28 -5 73 -24 73 -30 0 -16 -55 -25 -89 -13 -20 6
-52 10 -71 9 -19 -2 -33 -1 -30 2 15 14 84 45 92 41 4 -3 16 -7 25 -9z"/>
<path d="M7863 11245 c-61 -21 -56 -27 22 -27 59 0 65 1 65 17 0 8 -3 16 -7
16 -30 5 -52 4 -80 -6z"/>
<path d="M7728 11242 c-16 -2 -28 -8 -28 -13 0 -18 59 -13 79 6 15 15 17 15
-51 7z"/>
<path d="M7349 11168 c-41 -22 -71 -30 -108 -31 -51 0 -65 -9 -34 -21 11 -5
13 -10 6 -17 -8 -8 -20 -6 -42 5 -30 16 -32 16 -65 -14 -25 -23 -32 -37 -28
-55 2 -14 7 -25 11 -25 5 0 91 31 131 47 29 12 40 11 40 -3 0 -8 5 -14 10 -14
6 0 10 5 10 10 0 15 27 12 44 -5 13 -14 16 -13 26 4 13 25 -9 38 -63 37 -65
-2 -45 15 36 30 20 3 39 10 42 14 6 10 45 1 45 -11 0 -4 13 -3 30 2 37 13 31
27 -9 21 -28 -4 -29 -3 -25 27 3 17 4 31 2 30 -2 0 -28 -14 -59 -31z"/>
<path d="M3920 11107 c1 -32 17 -39 49 -23 30 16 43 32 19 23 -7 -2 -25 0 -40
4 -19 5 -28 4 -28 -4z"/>
<path d="M7391 11089 c-13 -5 -22 -12 -19 -15 11 -10 48 -12 54 -3 10 18 -10
27 -35 18z"/>
<path d="M3975 11060 c-66 -31 -66 -32 19 -32 33 0 70 -5 84 -11 20 -9 26 -8
38 8 23 31 18 48 -13 42 -16 -3 -37 -9 -48 -13 -20 -7 -20 -7 -1 14 19 22 19
22 0 22 -10 -1 -46 -14 -79 -30z"/>
<path d="M3797 11073 c-26 -26 14 -49 65 -38 l32 7 -35 19 c-37 20 -52 23 -62
12z"/>
<path d="M7830 10998 c0 -4 18 -8 40 -8 22 0 40 5 40 10 0 6 -17 10 -40 8 -22
-1 -40 -6 -40 -10z"/>
<path d="M4650 10945 c0 -11 -11 -15 -40 -15 -22 0 -40 -4 -40 -10 0 -5 3 -10
8 -11 4 0 16 -2 26 -4 11 -2 32 3 46 10 15 8 30 11 34 8 3 -4 6 -1 6 5 0 6 -9
16 -20 22 -16 9 -20 8 -20 -5z"/>
<path d="M4500 10860 c0 -5 21 -10 46 -10 27 0 43 4 39 10 -3 6 -24 10 -46 10
-21 0 -39 -4 -39 -10z"/>
<path d="M4587 10773 c-4 -3 -7 -15 -7 -25 0 -15 6 -17 38 -12 48 8 49 10 13
28 -34 18 -35 18 -44 9z"/>
<path d="M3763 10623 c9 -9 20 -13 24 -9 4 4 1 11 -7 16 -25 16 -35 11 -17 -7z"/>
<path d="M3840 10595 c0 -16 -43 -32 -78 -29 -31 2 -31 2 -28 -44 3 -51 15
-60 75 -55 61 4 83 13 77 28 -3 9 3 19 14 25 26 14 25 27 -2 35 -13 4 -31 17
-40 29 -10 11 -18 17 -18 11z"/>
<path d="M8780 10510 c0 -5 5 -10 11 -10 5 0 7 5 4 10 -3 6 -8 10 -11 10 -2 0
-4 -4 -4 -10z"/>
<path d="M9455 10260 c3 -5 8 -10 11 -10 2 0 4 5 4 10 0 6 -5 10 -11 10 -5 0
-7 -4 -4 -10z"/>
<path d="M3699 10247 c-4 -7 -7 -58 -3 -54 3 3 21 1 41 -5 81 -22 100 -16 58
20 -19 17 -91 46 -96 39z"/>
<path d="M3720 10138 c0 -12 48 -10 55 2 4 6 -5 10 -24 8 -17 -1 -31 -6 -31
-10z"/>
<path d="M3905 10130 c-3 -6 1 -7 9 -4 18 7 21 14 7 14 -6 0 -13 -4 -16 -10z"/>
<path d="M3790 10118 c0 -4 9 -8 20 -8 11 0 20 4 20 8 0 4 -9 8 -20 8 -11 0
-20 -4 -20 -8z"/>
<path d="M9315 10088 c-6 -4 -21 -17 -35 -28 l-25 -20 30 6 c57 11 65 15 65
33 0 19 -19 23 -35 9z"/>
<path d="M3860 10000 c-12 -8 -11 -10 8 -10 12 0 22 5 22 10 0 13 -11 13 -30
0z"/>
<path d="M3695 9821 c-6 -11 20 -33 28 -24 4 3 7 10 7 14 0 11 -29 19 -35 10z"/>
<path d="M9282 9698 c-7 -7 -12 -18 -12 -26 0 -7 -5 -10 -12 -6 -7 4 -8 3 -4
-4 4 -6 13 -9 21 -6 8 4 12 10 9 15 -3 5 2 12 10 15 17 6 22 24 8 24 -4 0 -13
-5 -20 -12z"/>
<path d="M3740 9654 c-16 -7 -31 -9 -35 -6 -3 4 -3 0 0 -9 3 -8 16 -16 28 -16
118 -6 147 -5 160 6 9 7 36 14 62 16 71 6 68 16 -3 12 -34 -2 -62 -1 -62 2 0
11 -121 7 -150 -5z"/>
<path d="M9386 9662 c-2 -4 4 -8 14 -8 10 0 16 4 14 8 -3 4 -9 8 -14 8 -5 0
-11 -4 -14 -8z"/>
<path d="M3823 9553 c-24 -9 -13 -20 17 -15 17 2 30 8 30 13 0 10 -27 11 -47
2z"/>
<path d="M3876 9382 c-2 -1 -24 -3 -50 -4 -25 0 -46 -4 -46 -7 0 -4 33 -6 73
-5 91 3 87 2 87 14 0 9 -56 11 -64 2z"/>
<path d="M3778 9304 c-4 -3 -14 -7 -24 -8 -35 -5 -24 -22 11 -18 21 3 35 10
35 18 0 14 -12 19 -22 8z"/>
<path d="M3825 9200 c-19 -7 -18 -9 9 -19 15 -6 49 -9 75 -7 25 3 53 5 61 6
20 2 -80 30 -105 29 -11 0 -29 -4 -40 -9z"/>
<path d="M3740 9114 c0 -7 39 -24 71 -30 41 -8 43 -8 93 0 39 5 53 12 45 21
-6 5 -209 14 -209 9z"/>
<path d="M9380 9110 c0 -5 5 -10 11 -10 5 0 7 5 4 10 -3 6 -8 10 -11 10 -2 0
-4 -4 -4 -10z"/>
<path d="M3798 8894 c-2 -2 -18 -4 -36 -6 -50 -4 -21 -19 44 -24 33 -2 76 -5
97 -7 21 -2 40 0 43 4 5 9 -14 22 -36 26 -35 6 -109 11 -112 7z"/>
<path d="M9278 8808 c6 -6 43 -12 82 -13 38 -1 67 1 65 4 -7 6 -22 8 -100 16
-46 4 -57 3 -47 -7z"/>
<path d="M9114 8589 c-5 -9 20 -12 120 -11 68 1 90 12 25 13 -24 1 -65 2 -91
4 -27 2 -50 -1 -54 -6z"/>
<path d="M9270 8119 c0 -25 113 -37 148 -15 26 16 8 22 -68 22 -44 0 -80 -3
-80 -7z"/>
<path d="M9165 7319 c-4 -5 -3 -9 2 -10 4 0 17 -2 28 -5 58 -12 135 -15 135
-5 0 6 -6 11 -12 12 -7 0 -22 2 -33 5 -48 10 -115 12 -120 3z"/>
<path d="M9010 7252 c-8 -5 -22 -8 -30 -7 -8 0 -18 -3 -21 -8 -3 -5 -25 -3
-48 3 -44 11 -149 12 -156 0 -12 -19 119 -49 235 -56 36 -2 65 -4 65 -5 0 0
25 -3 55 -4 161 -11 179 -8 136 21 -70 45 -198 75 -236 56z"/>
<path d="M9210 7240 c0 -5 4 -10 9 -10 6 0 13 5 16 10 3 6 -1 10 -9 10 -9 0
-16 -4 -16 -10z"/>
<path d="M9274 7139 c-3 -5 -2 -9 3 -9 4 0 18 -3 31 -6 12 -4 22 -2 22 4 0 13
-49 22 -56 11z"/>
<path d="M3705 7120 c-3 -5 1 -10 10 -10 9 0 13 5 10 10 -3 6 -8 10 -10 10 -2
0 -7 -4 -10 -10z"/>
<path d="M4178 6856 c-27 -5 -48 -13 -48 -18 0 -10 91 0 103 12 15 14 -7 16
-55 6z"/>
<path d="M3725 6492 c-10 -10 21 -52 39 -53 12 -1 36 -2 54 -4 20 -2 39 4 48
13 14 14 29 18 70 21 7 1 14 7 17 14 3 9 -23 12 -110 12 -63 0 -116 -2 -118
-3z"/>
<path d="M3803 6183 c-13 -2 -23 -11 -23 -19 0 -11 7 -13 28 -8 52 11 62 15
62 25 0 9 -26 10 -67 2z"/>
<path d="M9109 6030 c-23 -15 28 -30 98 -30 l68 1 -34 14 c-39 17 -114 26
-132 15z"/>
<path d="M9308 6008 c9 -9 15 -9 24 0 9 9 7 12 -12 12 -19 0 -21 -3 -12 -12z"/>
<path d="M3785 5830 c-3 -5 -3 -10 2 -11 4 0 15 -2 23 -4 9 -1 29 3 45 10 l30
13 -47 1 c-26 1 -50 -3 -53 -9z"/>
<path d="M3994 5525 c-18 -14 -18 -14 4 -8 12 3 22 9 22 14 0 12 -3 11 -26 -6z"/>
<path d="M3914 5511 c5 -8 56 -3 56 5 0 2 -14 4 -31 4 -16 0 -28 -4 -25 -9z"/>
<path d="M4388 5463 c-10 -2 -18 -8 -18 -13 0 -4 8 -7 18 -5 9 2 23 4 30 4 6
1 12 6 12 11 0 10 -12 11 -42 3z"/>
<path d="M4210 5432 c-19 -8 -69 -16 -110 -17 -89 -3 -88 -3 -73 -13 34 -22
273 11 273 38 0 11 -57 7 -90 -8z"/>
<path d="M3803 5402 c-12 -2 -20 -9 -17 -15 7 -20 159 -13 180 8 16 15 12 16
-62 13 -43 -2 -89 -4 -101 -6z"/>
<path d="M9026 5250 c16 -16 127 -36 189 -34 87 2 90 3 80 13 -6 5 -55 12
-110 16 -55 3 -115 8 -134 10 -21 3 -31 1 -25 -5z"/>
<path d="M9056 5141 c-10 -15 4 -19 94 -26 47 -4 88 -9 93 -12 4 -2 7 1 7 6 0
6 -3 12 -7 12 -9 1 -41 5 -115 12 -26 3 -51 8 -57 11 -5 4 -12 2 -15 -3z"/>
<path d="M2840 5049 c-16 -30 -9 -31 25 -3 28 22 29 24 8 24 -12 0 -27 -9 -33
-21z"/>
<path d="M2840 4961 c-17 -33 -12 -36 50 -36 33 0 60 3 60 6 0 6 -82 49 -93
49 -4 0 -11 -9 -17 -19z"/>
<path d="M9420 4709 c0 -5 5 -7 10 -4 6 3 10 8 10 11 0 2 -4 4 -10 4 -5 0 -10
-5 -10 -11z"/>
<path d="M3247 4484 c-3 -4 -48 -8 -99 -10 -215 -9 -250 -12 -260 -22 -8 -8
-6 -10 8 -7 10 2 92 6 180 8 148 4 212 15 187 30 -6 4 -13 4 -16 1z"/>
<path d="M3099 4266 c-2 -2 -29 -6 -59 -9 -172 -19 -212 -27 -218 -45 -10 -30
186 -14 300 24 26 8 48 20 48 25 0 9 -62 13 -71 5z"/>
<path d="M3008 4005 c-2 -2 -30 -6 -63 -9 -101 -11 -129 -16 -138 -25 -6 -6 4
-12 26 -16 29 -6 36 -11 34 -28 -2 -20 3 -21 73 -22 72 0 76 1 104 33 22 25
26 35 17 46 -11 13 -46 27 -53 21z"/>
<path d="M9150 3116 c0 -9 12 -19 28 -22 15 -4 32 -10 37 -14 19 -14 58 -23
51 -11 -4 6 -17 11 -29 11 -17 0 -19 2 -7 9 8 6 17 8 21 6 3 -3 28 -7 55 -9
l49 -4 -49 22 c-61 28 -156 35 -156 12z"/>
<path d="M3000 2961 c-17 -14 -20 -20 -10 -21 22 0 43 16 38 30 -2 8 -11 5
-28 -9z"/>
<path d="M9282 2932 c-28 -9 -8 -18 43 -20 31 -1 76 -4 100 -7 25 -2 45 -1 45
3 0 4 -10 9 -22 10 -13 1 -53 5 -89 10 -36 4 -71 6 -77 4z"/>
<path d="M2935 2919 c-4 -6 -5 -13 -2 -16 7 -7 27 6 27 18 0 12 -17 12 -25 -2z"/>
<path d="M8090 863 c0 -5 19 -19 41 -32 44 -25 62 -18 52 20 -4 15 -15 19 -49
19 -24 0 -44 -3 -44 -7z"/>
<path d="M8932 743 c-20 -15 -25 -14 73 -18 161 -7 252 -7 350 0 55 4 106 8
113 8 6 0 12 6 12 12 0 9 -28 11 -102 7 -57 -2 -125 -4 -153 -3 -27 1 -101 2
-163 4 -80 2 -119 -1 -130 -10z"/>
<path d="M9375 401 c-3 -2 -84 -5 -182 -7 -147 -3 -241 -8 -284 -13 -12 -2
-17 -38 -8 -54 7 -12 20 -15 57 -10 56 6 82 19 82 38 0 22 30 18 51 -7 18 -19
30 -21 147 -23 126 -2 128 -2 179 29 29 17 53 36 53 41 0 9 -87 15 -95 6z"/>
<path d="M8179 327 c-3 -25 3 -42 17 -50 36 -21 2 -77 -47 -77 -29 0 -29 -1
-26 -49 3 -33 0 -48 -7 -46 -13 5 -82 12 -186 21 -69 6 -108 19 -95 32 5 5
112 3 163 -3 33 -4 56 7 50 26 -2 7 3 20 12 28 38 38 47 42 73 32 23 -9 25 -8
22 12 -9 48 -27 66 -69 71 -74 9 -81 6 -52 -21 31 -29 33 -46 5 -74 -15 -15
-38 -22 -82 -26 -54 -4 -94 -8 -119 -12 -5 0 -8 -6 -8 -12 0 -6 -7 -27 -17
-46 -11 -25 -21 -33 -34 -30 -19 5 -29 -11 -29 -46 l0 -20 23 20 c37 33 56 36
53 7 -2 -13 -6 -27 -10 -31 -4 -4 -74 -8 -156 -8 -101 0 -153 -4 -161 -12 -10
-10 147 -12 682 -12 l694 0 -42 35 c-24 20 -43 42 -43 49 0 28 -23 64 -44 69
-11 3 -29 20 -39 38 -18 31 -18 33 -1 45 10 8 25 11 34 7 8 -3 21 -8 28 -11 7
-3 4 9 -9 31 -24 42 -29 43 -54 16 -9 -10 -33 -24 -52 -31 -28 -9 -38 -8 -58
5 -14 9 -53 18 -96 20 -44 2 -75 9 -80 17 -5 9 -38 13 -111 14 -69 1 -102 5
-101 12 1 6 -4 14 -12 17 -8 3 -16 0 -16 -7z"/>
<path d="M7907 324 c-3 -4 -27 -6 -53 -6 -35 1 -54 -5 -79 -24 -21 -16 -36
-21 -40 -15 -11 18 -35 12 -44 -11 -10 -27 -96 -56 -168 -57 -42 -1 -54 -5
-63 -22 -11 -19 -9 -20 20 -15 26 4 33 0 42 -20 12 -26 26 -31 33 -11 3 7 29
13 66 15 56 3 61 1 54 -15 -25 -59 -11 -99 23 -65 25 25 29 107 6 120 -28 16
-10 44 23 37 83 -16 110 -15 138 7 15 12 43 22 62 22 31 1 33 3 28 26 -8 32
-33 49 -48 34z"/>
<path d="M9087 303 c3 -10 10 -23 15 -30 14 -17 1 -32 -22 -28 -23 4 -36 -10
-16 -18 7 -3 46 -4 86 -3 66 2 89 12 90 37 0 10 -31 21 -75 25 -21 3 -49 11
-62 19 -20 14 -22 14 -16 -2z"/>
<path d="M8990 301 c0 -5 11 -11 25 -13 28 -6 34 6 9 16 -22 8 -34 7 -34 -3z"/>
<path d="M7596 274 c-9 -25 4 -37 19 -17 13 18 11 33 -5 33 -4 0 -11 -7 -14
-16z"/>
<path d="M7435 270 c3 -5 13 -10 21 -10 8 0 14 5 14 10 0 6 -9 10 -21 10 -11
0 -17 -4 -14 -10z"/>
<path d="M8920 261 c0 -10 26 -9 36 2 4 4 -2 7 -14 7 -12 0 -22 -4 -22 -9z"/>
<path d="M7303 228 c-33 -20 -44 -52 -20 -60 6 -2 32 -1 55 2 l44 5 -26 29
c-13 17 -23 33 -20 38 7 11 4 10 -33 -14z"/>
<path d="M7380 232 c0 -12 19 -26 26 -19 2 2 -2 10 -11 17 -9 8 -15 8 -15 2z"/>
<path d="M7335 134 c-33 -7 -64 -10 -70 -7 -5 2 -2 -2 8 -10 18 -15 47 -15
109 -1 15 3 30 9 33 14 9 15 -20 17 -80 4z"/>
<path d="M7600 106 c0 -9 5 -16 10 -16 6 0 10 4 10 9 0 6 -4 13 -10 16 -5 3
-10 -1 -10 -9z"/>
</g>
</svg>
