<?xml version="1.0" encoding="utf-8"?>
<!-- Generator: Adobe Illustrator 20.1.0, SVG Export Plug-In . SVG Version: 6.00 Build 0)  -->
<svg version="1.1" id="Calque_1" xmlns="http://www.w3.org/2000/svg" xmlns:xlink="http://www.w3.org/1999/xlink" x="0px" y="0px"
	 viewBox="0 0 373.4 173.5" style="enable-background:new 0 0 373.4 173.5;" xml:space="preserve">
<style type="text/css">
	.st0{fill:#012FA6;}
	.st1{fill:#FEFEFE;}
</style>
<g>
	<path d="M360.7,11.6c-2.6-0.6-4.1,1-5.8,2.2c-1,0.7-2,2-3,2.1c-3.2,0.2-4.8,2.8-7.2,4.3c-3,2-5.9,4.2-9,6.1
		c-4.3,2.7-8.9,4.7-13.8,6.1c-0.6,0.2-1.1,0.3-1.7,0.4c-1,0.3-1.9,0.3-1.8,1.8c0.1,1-1,1.8-1.9,1.7c-2.5-0.4-4,1.1-5.7,2.4
		c-1.7,1.2-3.6,2.2-5.8,2.6c-0.9,0.2-1.7,0.8-2.5,1.4c-3,2-6.3,3.1-9.8,3.6c-3,0.4-2.8,2.1-1.4,3.9c2.3,2.8,3.6,5.7,3.9,9.4
		c0.3,3.6-0.2,7-1.8,10.2c-1.8,3.5-4.8,5.5-8.7,6.1c-6,0.9-10.8-1.4-14.6-6c-1.5-1.8-3.5-1.4-4.2,1c-1.1,4.2-3.9,7.1-7.1,9.8
		c-0.9,0.7-1.7,1.7-2.8,2.1c-2.2,0.8-4.3,0.2-6.3-0.8c-2.4-1.3-3.7-3.6-5.1-5.8c-1.4-2.2-2.9-4.3-3.5-6.9c-0.1-0.3-0.2-0.5-0.2-0.8
		c0-0.2,0-0.5,0-1c-1.4,2.6-2.7,5-4,7.4c-1.9,3.5-3.6,7.1-4.7,10.9c-0.5,1.9-0.8,3.8-1.2,5.7c-0.1,0.9-0.5,1.5-1.4,1.6
		c-1,0.1-1.9,0.1-2.5-1c-2.1-3.5-3.5-7.2-4.5-11.1c-0.6-2.3-1.5-4.6-2.3-6.9c-0.2-0.5-0.1-1.2-0.4-1.7c-0.2-0.4-0.6-0.8-0.9-0.8
		c-0.4,0-1.2,0.2-1.3,0.5c-0.9,2.4-2.9,3.9-4.5,5.8c-2.6,3-5.2,6-8,8.7c-3.1,3.1-6.5,5.8-10.5,7.6c-3.1,1.4-6.3,2.3-9.5,3.6
		c-3.9,1.5-7.7,3.2-11.5,4.7c-2.5,1-4.9,2-7.4,2.9c-2.9,1-3.8,2.6-3.2,5.6c0.1,0.6,0.2,1.2,0.2,1.7c0,2,1.7,3.7,3.6,3.7
		c3.2,0,6.4,0,9.5-0.3c4.6-0.4,9.3-0.9,13.8-1.7c4.2-0.8,8.3-2,12.5-3.1c2-0.5,3.9-1.8,6.1-1.7c1.3,0.1,2.2,0.6,2.4,1.6
		c0.4,1.5,0,2.4-1.4,3c-1.6,0.7-3.2,1.2-4.9,1.7c-5.2,1.4-10.5,2.9-15.8,4.1c-3.6,0.9-7.2,1.5-10.8,2.1c-3.6,0.5-7.2,1.1-10.9,1.2
		c-6.1,0-10.5-3.3-12.9-9.1c-0.6-1.4-1.1-3-2.8-3.3c-0.6-0.1-1.4-0.2-1.9,0.1c-5.3,3.1-11.1,5-16.9,6.9c-2.5,0.9-3.2,2.1-2.7,4.7
		c0.3,1.7,0.4,3.4,0.5,5.1c0.3,3,0.7,6.1,0.9,9.1c0.1,1.5,0.2,2.9,0.3,4.4c0.1,1.6,0.2,3.1,1,4.5c0.3,0.5,0.5,1.1,0.5,1.6
		c-0.1,1.9-0.2,3.8-0.5,5.7c-0.2,1.2-1.3,1.7-2.4,1.3c-1.4-0.5-2.9-1.1-4.2-1.8c-2.1-1.1-2.8-3.2-2.9-5.4c-0.2-2.8-0.2-5.6-0.3-8.5
		c-0.1-2.8-0.3-5.6-0.5-8.4c-0.2-2.6-0.4-5.2-0.6-7.9c-2.2,0.1-4.3,0.6-6.3,1.5c-3.6,1.5-7.2,3-10.8,4.6c0.2,1.9,0.3,4,0.5,6.1
		c0.2,1.9,0.5,3.7,0.7,5.6c0.3,2.9,0.7,5.8,0.9,8.8c0.2,1.7,0.3,3.4,0.2,5.1c-0.1,1-0.8,2-1.2,3c-0.4,1.1-1.2,1.6-2.4,1.6
		c-1.3,0-2.4-0.4-2.8-1.6c-0.5-1.4-0.9-2.9-1.2-4.4c-0.4-2.4-0.7-4.9-1.1-7.4c-0.5-2.9-0.3-5.7,0.6-8.4c0,0,0-0.1,0-0.1
		c0.2-0.6-1-4.4-1.6-4.6c-0.5-0.2-1.2-0.2-1.7,0c-4.5,1.6-8.9,3.3-13.3,4.8c-5.2,1.8-10.4,3.5-15.7,5.1c-4.7,1.4-9.5,2.6-14.3,3.9
		c-4.4,1.1-8.8,2.2-13.2,3.1c-3.3,0.7-6.6,1.2-9.9,1.7c-2.1,0.3-4.2,0.4-6.4,0.5c-4,0.1-8,0.2-12.1,0.2c-3.5,0-6-1.7-8.2-4.3
		c-3-3.7-2.4-7.7-1.1-11.7c1.7-5.3,4.5-9.9,8.2-14c3.4-3.9,7.4-7.1,11.3-10.4c6.9-5.6,14.3-10.6,21.7-15.4
		c5.4-3.5,10.9-6.8,16.3-10.2c3.9-2.4,7.7-5,11.5-7.4c5.3-3.3,10.6-6.7,16-9.9c4.5-2.6,9.1-5,13.8-7.4c5.4-2.7,10.9-5.2,16.3-7.8
		c3.5-1.7,7-3.3,10.5-5c4.4-2.1,8.9-4.3,13.3-6.5c1.8-0.9,3.4-2.1,5.1-3.2c2.5-1.7,4.4-1.8,7.4,0.1c1.3,0.9,1.3,0.9,0,1.8
		c-5,3.6-10.5,6.5-16,9.1c-6.1,2.8-12.3,5.4-18.3,8.4c-6.7,3.3-13.3,7-19.9,10.5c-5.1,2.8-10.3,5.5-15.3,8.5
		c-5.3,3.2-10.4,6.7-15.6,10c-9.4,6.1-18.8,12.2-28.1,18.5c-4.8,3.2-9.4,6.6-13.9,10.2c-3.8,3.1-7.5,6.4-10.8,9.9
		c-2.7,2.9-5.2,6.1-7.3,9.4c-2.4,3.8-0.3,7.8,3.8,9.1c3.3,1,6.8,0.9,10.2,0.5c2.4-0.3,4.8-0.6,7.2-1c2.6-0.4,5.1-1,7.6-1.5
		c2.9-0.6,5.8-1.1,8.7-1.6c4.1-0.7,8.1-1.3,12.2-2.2c3.2-0.7,6.4-1.5,9.6-2.5c2-0.6,3.8-1.7,5.7-2.5c6.3-2.7,12.8-4.8,19.5-6.5
		c1.7-0.5,3.5-0.9,4.6-2.6c0.2-0.4,0.4-0.9,0.4-1.3c0-4.6,0-9.3,0-13.9c0-1.4,0.3-2.6,1.9-3.1c0.1-3.8-0.1-7.5-0.9-11.2
		c-0.5-2.1-1-4.2-1.4-6.3c-0.3-1.5,0.1-3,1.2-4.1c1.4-1.5,3.2-2.4,5.3-2.5c1.7-0.1,2.7,1.2,2.5,2.9c-0.1,1.3,0.1,2.6,0,3.9
		c-0.2,2.4-0.5,4.8-0.8,7.2c-0.1,0.8-0.4,1.6-0.4,2.4c-0.1,5.3-0.2,10.6-0.2,15.9c0,1.8,0,3.6,0.3,5.3c0.2,1.7,0.4,2.6,2.8,2.1
		c3-0.7,6.1-1.4,8.9-2.7c3.4-1.5,5.4-4.3,6-8.2c0.6-4.2,0-8.3,0.2-12.4c0.1-2.4-0.3-4.9-0.4-7.3c-0.1-1.6-0.2-3.2-0.2-4.7
		c0-2.4,1.1-4.3,2.9-5.8c1-0.9,3.5-0.8,4.7-0.1c1.3,0.9,2,2.8,1.8,4.3c-0.6,3.5-1.3,7.1-1.6,10.6c-0.4,4.2-0.4,8.5-0.5,12.7
		c0,1.1,0.2,2.2,0.5,3.2c0.4,1.7,1.3,2.1,2.9,1.5c2.3-0.8,4.5-1.9,6.7-2.7c3.6-1.4,7.3-2.7,11-3.9c2.9-1,4.6-3.1,6.1-5.6
		c3.1-5.3,6.2-10.6,9.5-15.7c2-3,4.3-5.8,6.7-8.4c2.7-2.8,5.8-5.3,8.8-7.9c0.6-0.5,1.5-1,2.3-0.4c0.9,0.7,1.5,1.6,1.4,2.8
		c-0.1,2-1.6,2.9-2.9,4.1c-2.1,2-4.2,4.1-6,6.3c-2.3,2.8-4.5,5.7-6.5,8.7c-1.4,2.2-2.5,4.6-3.7,6.9c-0.4,0.9-0.8,1.7-1.3,2.7
		c1.9,0.2,3.5-0.4,5.2-0.9c5.9-2,11.8-3.9,17.2-6.9c4.2-2.4,8.4-4.8,12.2-7.9c4.5-3.7,8.5-7.8,11.5-12.8c1.3-2.1,2.3-4.4,3.5-6.6
		c0.5-1,1.1-2,1.8-2.8c1.1-1.5,2.8-1.5,4.3-1.1c1.4,0.3,2,1.5,2.1,3c0,0.8,0.1,1.7,0.4,2.4c0.4,1.2,0.9,2.4,1.4,3.5
		c1.4,3.1,2.8,6.2,4,8.9c1.2-2.7,2.4-5.8,4-8.8c1.6-3,3.5-5.8,5.4-8.5c1-1.5,2.3-2.8,3.4-4.2c0.9-1,2.1-1,3.2-0.7
		c1.2,0.3,2.1,1.2,2.3,2.4c0.4,2.5,0.6,5.1,1,7.7c0.5,3.1,1,6.3,1.7,9.4c0.5,2.1,1.8,2.8,3.8,1.4c1.5-1.1,2.8-2.6,4.1-4
		c1.2-1.2,2.3-2.5,4.1-2.8c0.2,0,0.4-0.2,0.5-0.3c1.4-2.7,2.8-5.4,4-8.2c0.5-1.1,0.5-2.4,0.7-3.6c0.3-1.4,1.2-2.2,2.5-2.2
		c2.2-0.1,3.4,0.5,3.7,2.1c0.2,0.9,0.2,1.9,0.1,2.9c-0.3,2.7,0.7,7.1,3.9,8.5c4.1,1.8,8.8,1.2,11.2-3.4c1.1-2.2,2.1-4.5,2.2-7
		c0.1-2.9-1.3-4.8-3.7-6.1c-1.1-0.6-2.3-1-3.5-1.4c-1.1-0.4-2-1-2.1-2.2c-0.2-1.4,0.4-2.6,1.7-3.2c5.1-2.6,10.1-5.3,15.3-7.8
		c3.3-1.6,6.8-3,10.1-4.6c0.9-0.4,1.6-1.1,2.4-1.7c1.7-1.3,3.4-2.2,5.6-2.2c0.9,0,1.8-0.7,2.7-1.2c5.2-2.8,10.2-5.7,15.5-8.4
		c3.8-2,7.9-3.3,12-4.6c2.2-0.7,4.2-2.3,6.2-3.6c2.5-1.7,5-3.3,7.9-4.4c1.6-0.6,2.9-1.8,4.4-2.8c1.2-0.8,2.3-1.8,4-1.7
		c1.6,0.1,2.2,1.2,2.8,2.4c0.6,1.3-0.2,2.2-0.9,3c-0.8,0.8-1.7,1.5-2.6,2.2c-1.8,1.2-2.7,3.2-3.8,4.9c-2.4,3.6-4.6,7.3-7,10.9
		c-1.4,2.2-2.8,4.4-4.1,6.6c-0.2,0.4-0.2,1-0.2,1.5c0,1.8-0.9,3.1-2.6,3.6c-1.3,0.4-1.4,1.5-1.9,2.3c-4,7-8.2,13.7-12.9,20.2
		c-3.9,5.5-8,10.8-11.9,16.3c-2.4,3.4-4.8,6.8-7.3,10.1c-1.9,2.6-4,5.1-5.9,7.7c-1.9,2.6-3.7,5.3-5.5,7.9c-1.7,2.5-3.4,4.9-4.9,7.5
		c-0.8,1.4-1.5,3.1-1.7,4.7c-0.2,1.1,0.2,2.4,0.8,3.4c1.6,2.7,3.5,5.3,5.9,7.4c2.3,2.1,3.5,4.9,4,8c0.3,2.1,0.7,4.2,0.7,6.3
		c-0.1,3.9-0.6,7.7-2.4,11.2c-0.7,1.3-1.8,2.5-2.6,3.7c-0.6,1-1.1,2.1-1.7,3.1c-1.9,3.4-4.7,5.9-8,8c-3.4,2.1-6.8,4.4-10.7,5.7
		c-3.4,1.1-7,1.6-10.5,1.3c-3.9-0.3-7.4-1.7-10.4-4.4c-2.7-2.4-5.2-4.8-6.9-8.1c-1.2-2.4-1.9-5-2.3-7.7c-0.6-4.4,0.5-8.5,1.7-12.6
		c1.1-3.9,3.2-7.3,6.1-10.1c1.8-1.7,3.3-3.7,5.1-5.5c1.7-1.8,3.8-3,6.2-3.8c0.1,0,0.3-0.1,0.4-0.2c2.7-2,6-2,9-2.9
		c3.7-1.1,7.2-2.4,10.1-5.2c1.9-1.8,3.4-3.9,4.4-6.3c1.8-4.2,4.3-8,7.2-11.6c2.3-2.9,4.7-5.7,6.6-8.9c1.2-1.9,2.2-3.9,4.4-4.8
		c0.3-0.1,0.5-0.5,0.6-0.8c2-3.8,4.5-7.3,7.1-10.6c4.2-5.2,8.2-10.6,11.6-16.4c2.6-4.5,5.7-8.6,8.6-12.9c0.9-1.3,2-2.6,2.6-4.1
		c0.7-1.7,2.3-2.5,3.1-3.9c1.7-3,3.2-6.1,4.7-9.1C355.9,18.5,357.8,14.8,360.7,11.6z M276.5,157.9c-0.4,3.1-1.6,5.7-3.9,7.9
		c-0.3,0.3-0.6,0.7-0.7,1c-0.2,2,1.4,3.3,3.3,2.9c1.6-0.3,3.1-0.6,4.7-0.8c1.5-0.2,2.3-1,2.5-2.4c0.1-0.8,0.2-1.7,0.2-2.5
		c0.1-3.8,1.7-4.8,5.2-3.1c1.1,0.6,2.3,1.1,3.5,1.6c0.4,0.1,1,0,1.3-0.2c1.2-0.8,2.4-1.6,3.4-2.6c2.5-2.3,5.1-4.6,6.3-8
		c0.5-1.5,1.1-3,1.6-4.5c1.5-4.3,2.6-8.7,2.3-13.3c0-0.4-0.4-1-0.7-1.1c-0.7-0.3-1.2-1.1-2.2-0.4c-2.6,2.1-5.7,2.6-8.9,2.3
		c-2.1-0.2-4.2-0.4-6.3-0.5c-1.9-0.1-1.9-0.1-2,1.8c0,0.2,0,0.5-0.1,0.7c-0.7,2.9-1.4,5.8-2.2,8.7c-0.3,1.1-0.5,2.1,0.3,3.2
		c0.4,0.6,0.7,1.4,0.9,2.2c0.6,2.1,0.1,3.7-1.8,4.7C281,156.4,278.7,157.1,276.5,157.9c-0.3-1.6-0.6-3.3-1-4.9
		c-0.9-4.1,0.8-6.6,4.8-7.2c0.4-0.1,0.9-0.5,1.1-0.9c1-2.5,2-5,2.7-7.6c1-3.7,0.8-3.9-2.4-5.8c-2.3-1.4-4.4-2.9-5.8-5.3
		c-1.6-2.5-3.6-2.6-5.9-0.8c-2.2,1.7-4.1,3.6-5.6,6c-1.4,2.3-3.1,4.5-4.5,6.9c-1,1.6-1.9,3.3-2.5,5.1c-2,6.4-0.6,12.4,2.9,17.9
		c2.3,3.6,5.6,5.6,10,5.3c1-0.1,1.4-0.4,1.7-1.4C272.6,162.2,274.1,159.8,276.5,157.9z M277.5,121.4c0,0.3-0.1,0.9,0.1,1.2
		c0.6,0.9,1.3,1.8,2,2.6c0.5,0.6,1.1,1.1,1.7,1.7c0.4,0.5,0.8,1,1.3,1.4c0.8,0.5,1.7,0.8,2.5,1.3c0.7,0.4,1.3,1.1,2.1,1.3
		c1.6,0.4,3.2,0.6,4.8,0.9c3,0.5,6,0.4,8.6-1.6c0.6-0.4,1.2-0.7,1.8-1c0-0.4,0.1-1-0.1-1.3c-1.2-1.6-2-3.5-3.7-4.8
		c-1.1-0.8-2.1-1.9-3.3-2.5c-1.1-0.5-1.9-1.4-3.2-1.7c-2-0.5-3.8-0.5-5.6,0C283.4,119.7,280.4,120.6,277.5,121.4z"/>
	<path class="st0" d="M276.5,157.9c-2.4,1.8-3.9,4.3-4.5,7.2c-0.2,1-0.7,1.3-1.7,1.4c-4.5,0.3-7.8-1.8-10-5.3
		c-3.5-5.5-4.8-11.5-2.9-17.9c0.6-1.8,1.5-3.5,2.5-5.1c1.4-2.3,3.1-4.5,4.5-6.9c1.5-2.4,3.4-4.3,5.6-6c2.3-1.8,4.3-1.6,5.9,0.8
		c1.5,2.4,3.5,3.9,5.8,5.3c3.2,1.9,3.4,2.2,2.4,5.8c-0.7,2.6-1.7,5.1-2.7,7.6c-0.2,0.4-0.7,0.9-1.1,0.9c-4,0.5-5.7,3.1-4.8,7.2
		C275.9,154.6,276.2,156.3,276.5,157.9L276.5,157.9z M274.1,137.7c0.1,0,0.2-0.1,0.3-0.1c-0.5-1.3-0.9-2.7-1.6-3.9
		c-0.8-1.3-2.2-1.8-3.6-1.6c-1.4,0.1-2.2,1.1-2.6,2.4c-0.3,0.9-0.5,1.8-0.6,2.7c-0.2,2.3,1.9,4.4,4.3,4.5
		C272.6,141.5,274.1,140,274.1,137.7z M262.2,156.4c0,1.5,0.4,2.8,1.5,3.8c0.9,0.8,2.3,1.1,3.2,0.6c0.9-0.5,1.3-1.7,0.9-3.1
		c-0.4-1.6-1.4-2.6-2.7-3.5c-1.2-0.9-2.1-0.7-2.7,0.7C262.3,155.4,262.3,155.9,262.2,156.4z"/>
	<path class="st0" d="M276.5,157.9c2.2-0.8,4.5-1.5,6.7-2.5c1.9-0.9,2.5-2.6,1.8-4.7c-0.2-0.8-0.4-1.6-0.9-2.2
		c-0.7-1.1-0.6-2.1-0.3-3.2c0.7-2.9,1.5-5.8,2.2-8.7c0.1-0.2,0.1-0.5,0.1-0.7c0.1-1.9,0.1-1.9,2-1.8c2.1,0.1,4.2,0.3,6.3,0.5
		c3.2,0.3,6.3-0.2,8.9-2.3c0.9-0.7,1.5,0.1,2.2,0.4c0.3,0.1,0.7,0.7,0.7,1.1c0.3,4.6-0.8,9-2.3,13.3c-0.5,1.5-1,3-1.6,4.5
		c-1.2,3.4-3.8,5.7-6.3,8c-1.1,1-2.2,1.8-3.4,2.6c-0.3,0.2-0.9,0.3-1.3,0.2c-1.2-0.4-2.3-1-3.5-1.6c-3.5-1.7-5-0.8-5.2,3.1
		c0,0.8-0.1,1.7-0.2,2.5c-0.2,1.5-1.1,2.2-2.5,2.4c-1.6,0.2-3.1,0.4-4.7,0.8c-2,0.4-3.5-0.9-3.3-2.9c0-0.4,0.4-0.7,0.7-1
		C274.9,163.6,276.1,161,276.5,157.9C276.5,157.9,276.5,157.9,276.5,157.9z M294.3,143.1c0,2.6,1.4,4.1,3.8,4.2
		c2.2,0,3.6-1.6,3.7-4.1c0.1-2.6-1.3-4.2-3.7-4.2C295.6,139,294.3,140.4,294.3,143.1z"/>
	<path class="st1" d="M277.5,121.4c3-0.8,5.9-1.7,8.8-2.5c1.9-0.5,3.7-0.6,5.6,0c1.3,0.3,2.1,1.2,3.2,1.7c1.2,0.6,2.2,1.6,3.3,2.5
		c1.7,1.3,2.5,3.2,3.7,4.8c0.2,0.3,0.1,0.9,0.1,1.3c-0.6,0.3-1.3,0.6-1.8,1c-2.6,1.9-5.6,2-8.6,1.6c-1.6-0.3-3.2-0.5-4.8-0.9
		c-0.8-0.2-1.4-0.9-2.1-1.3c-0.8-0.5-1.7-0.8-2.5-1.3c-0.5-0.3-0.9-0.9-1.3-1.4c-0.6-0.6-1.2-1.1-1.7-1.7c-0.7-0.8-1.4-1.7-2-2.6
		C277.4,122.3,277.5,121.8,277.5,121.4z M296.6,126.6c0-1.5-0.6-2.3-1.9-2.3c-1.3,0-2,0.7-2,2.3c0,1.5,0.6,2.3,1.9,2.3
		C296,128.9,296.6,128.2,296.6,126.6z M284.9,121.9c-1.5,0-2.2,0.6-2.2,1.9c0,1.5,0.6,2.2,1.9,2.2c1.4,0,2.1-0.6,2.1-1.8
		C286.8,122.7,286.2,121.9,284.9,121.9z"/>
	<path d="M274.1,137.7c0,2.4-1.5,3.9-3.8,3.9c-2.4,0-4.6-2.2-4.3-4.5c0.1-0.9,0.3-1.8,0.6-2.7c0.4-1.2,1.2-2.2,2.6-2.4
		c1.5-0.2,2.9,0.3,3.6,1.6c0.7,1.2,1.1,2.6,1.6,3.9C274.3,137.6,274.2,137.6,274.1,137.7z"/>
	<path d="M262.2,156.4c0.1-0.5,0.1-1,0.3-1.5c0.6-1.4,1.4-1.6,2.7-0.7c1.3,0.9,2.3,1.9,2.7,3.5c0.3,1.3,0,2.6-0.9,3.1
		c-0.9,0.5-2.3,0.3-3.2-0.6C262.6,159.2,262.3,157.9,262.2,156.4z"/>
	<path d="M294.3,143.1c0-2.7,1.3-4.1,3.7-4.1c2.4,0,3.8,1.6,3.7,4.2c-0.1,2.6-1.5,4.2-3.7,4.1C295.7,147.2,294.3,145.7,294.3,143.1z
		"/>
	<path d="M296.6,126.6c0,1.6-0.6,2.3-2,2.3c-1.3,0-1.9-0.8-1.9-2.3c0-1.6,0.6-2.3,2-2.3C296,124.3,296.6,125.1,296.6,126.6z"/>
	<path d="M284.9,121.9c1.3,0,1.9,0.7,1.9,2.2c0,1.2-0.7,1.9-2.1,1.8c-1.3,0-1.9-0.7-1.9-2.2C282.7,122.5,283.4,121.9,284.9,121.9z"
		/>
</g>
</svg>
