<svg id="dandy-logo" data-name="Dandy CostArt Logo" xmlns="http://www.w3.org/2000/svg" viewBox="0 0 402.44 142.64">
    <title>Dandy CostArt Logo</title>
    <path
        d="M56.66,82.83l3.2-4L93.7,36.19,109,16.87A2.48,2.48,0,0,1,111,15.72c1,0,1.35.18,1.47,1.21.17,1.51.36,3,.41,4.53.18,5.36.3,10.73.46,16.09a29.3,29.3,0,0,1-5.21,17.36,75.06,75.06,0,0,1-11.1,13c-8.61,8.24-18.13,15.36-27.87,22.18-3.38,2.35-6.45,5.09-9.68,7.61-.88.68-1.73,1.39-2.65,2.14-.28-.19-.54-.37-.79-.57-2.39-1.93-4.74-3.92-7.18-5.78s-5-3.6-7.48-5.39A248.26,248.26,0,0,1,18.79,70.22,90.61,90.61,0,0,1,7.15,57.72a47.88,47.88,0,0,1-4-6.38A26.82,26.82,0,0,1,0,38.31c.12-5.88.3-11.76.49-17.64,0-1.26.22-2.51.38-3.76.13-1,.4-1.18,1.37-1.19a2.36,2.36,0,0,1,2,1.08c2.17,2.76,4.37,5.51,6.56,8.26L47.84,71.78,55.92,82C56.13,82.22,56.35,82.46,56.66,82.83Z" />
    <path
        d="M398.65,100.25l3.78.92a1.64,1.64,0,0,1,0,.45A30.55,30.55,0,0,1,397,113a13.78,13.78,0,0,1-5.7,4.48,9.07,9.07,0,0,1-4.8.54,6.66,6.66,0,0,1-5.43-4.66c-.19-.48-.34-1-.54-1.56-.3.36-.53.64-.75.92a15.26,15.26,0,0,1-5,4.32,9.41,9.41,0,0,1-4.93,1.06,5.47,5.47,0,0,1-5-3.64,13.86,13.86,0,0,1-.77-7.21c.37-2.86.89-5.7,1.29-8.55a16.87,16.87,0,0,0,.12-2.66,2.45,2.45,0,0,0-1.61-2.43c-1.24-.48-2.51-.88-3.91-1.36-.17.92-.31,1.71-.46,2.49a80.37,80.37,0,0,1-4,14.53,23,23,0,0,1-3.45,6.05c-3.9,4.9-9.56,3.59-12.61.69a16.07,16.07,0,0,1-3.71-5.61c-.58-1.39-1.05-2.84-1.51-4.28a1.14,1.14,0,0,0-.74-.86,56.83,56.83,0,0,0-10.06-3.1c-.5-.09-1-.13-1.57-.19-.51.91-1,1.78-1.47,2.64a38.45,38.45,0,0,1-7,9.42,14.3,14.3,0,0,1-7,3.87,11.39,11.39,0,0,1-5.38-.18c-4.4-1.26-6.32-5.25-4.91-9.51a11.4,11.4,0,0,1,3.47-4.94,25.71,25.71,0,0,1,10.81-5.42A34.56,34.56,0,0,1,318,96.74l1.23-.08c1.53-2.82,3.06-5.61,4.58-8.4,2.91-5.33,5.86-10.63,8.69-16A3.27,3.27,0,0,1,336,70.41a4.14,4.14,0,0,1,2.28.78v4.32c0,3.41-.06,6.81,0,10.22.08,3,.27,6.06.54,9.08a50.57,50.57,0,0,0,2.46,12.83,18.45,18.45,0,0,0,1.95,4c1.81,2.68,4.39,2.71,6.39.18a18.49,18.49,0,0,0,2.72-5.68c.3-.87.54-1.77.8-2.66a75.39,75.39,0,0,0,2.66-11.08c0-.26.08-.52.11-.77a2.49,2.49,0,0,0,0-.36,3,3,0,0,0-.34-.25c-2.26-1.16-2.68-4.1-2-6a4.28,4.28,0,0,1,.72-1.24,3,3,0,0,1,5.22.48,8.57,8.57,0,0,1,.9,3.75c.63.16,1.3.31,2,.5,1.56.45,3.13.86,4.67,1.39A7.27,7.27,0,0,1,370,91.68a5.65,5.65,0,0,1,1.59,3.69,20.54,20.54,0,0,1-.59,4.94,48.3,48.3,0,0,0-1.19,8.45,11.8,11.8,0,0,0,.34,3,1.88,1.88,0,0,0,2.33,1.54,4.74,4.74,0,0,0,2.48-1.15,15.81,15.81,0,0,0,4.09-5.6,26.29,26.29,0,0,0,2.21-7.77c.33-2.26.75-4.52,1.12-6.78.05-.29.06-.59.09-1-.94-.1-1.84-.25-2.75-.28a1,1,0,0,1-1.05-.91,3.37,3.37,0,0,1,.27-2.58,1.05,1.05,0,0,1,1.08-.59c1,.07,2.06,0,3.21,0,.16-.9.36-1.83.47-2.77.19-1.66.35-3.31.46-5a1.34,1.34,0,0,1,.6-1.1,8.8,8.8,0,0,1,5.4-1.61,20.43,20.43,0,0,1-.2,5.07c-.19,1.68-.46,3.35-.71,5.14a66.48,66.48,0,0,0,6.81-.88c1.24.92,1,3.26.42,4.28a1.37,1.37,0,0,1-1.2.65c-2.07.14-4.14.3-6.2.46a5.63,5.63,0,0,0-.63.11c-.19,1-.41,2.09-.57,3.14-.61,3.95-1.25,7.89-1.75,11.86a14.28,14.28,0,0,0,.11,4c.5,3.16,3.12,4.23,5.76,2.42a11.45,11.45,0,0,0,3.07-3.32,22.42,22.42,0,0,0,3.2-7.75q.09-.44.21-.87C398.49,100.43,398.56,100.37,398.65,100.25Zm-82.13,1.51c-.42,0-.71-.05-1,0a28.32,28.32,0,0,0-6.66,1,13.71,13.71,0,0,0-6,3.18,6.06,6.06,0,0,0-2.19,5.1,2.64,2.64,0,0,0,2.1,2.54,9,9,0,0,0,2.74.15,8,8,0,0,0,4.72-2.48C312.94,108.53,314.65,105.17,316.52,101.76Zm16.54-1.32A113.88,113.88,0,0,1,332,83.19l-.21,0-7.4,14.07A30.37,30.37,0,0,1,333.06,100.44Z" />
    <path
        d="M51.34,19.28c.19.92-.34,1.26-.8,1.62a26.28,26.28,0,0,1-7.33,3.87A38,38,0,0,1,31.5,27a15.89,15.89,0,0,1-.94-1.68A30.37,30.37,0,0,1,29.1,5.19,15.39,15.39,0,0,1,31.6.12,36.42,36.42,0,0,1,48.81,5a7.65,7.65,0,0,1,2.63,2.15,57.4,57.4,0,0,1,5.76-.54,54.87,54.87,0,0,1,5.71.55,25.2,25.2,0,0,1,2-1.65A30.35,30.35,0,0,1,76.49.94C78.59.54,80.72.32,83,0a31.12,31.12,0,0,1,1.41,2.84,31.52,31.52,0,0,1,1.38,17.9A15.79,15.79,0,0,1,82.87,27a39,39,0,0,1-10.19-1.75A30.39,30.39,0,0,1,65.52,22c-.53-.33-1-.72-1.54-1.08a1.59,1.59,0,0,1-.84-1.65A20.78,20.78,0,0,1,51.34,19.28Z" />
    <path
        d="M39.22,104.9l4-5,9.62,7.81-4.49,5.47a19.6,19.6,0,0,1,1.31,16.1,18.94,18.94,0,0,1-7.93,10,19.59,19.59,0,1,1-2.46-34.41ZM20.47,122.74a10.73,10.73,0,1,0,10.77-10.69A10.65,10.65,0,0,0,20.47,122.74Z" />
    <path
        d="M65,113.25l-4.42-5.39L70.18,100c1.3,1.64,2.57,3.23,3.87,4.88a19.8,19.8,0,0,1,16.56.27,18.79,18.79,0,0,1,8.85,8.58,19.57,19.57,0,0,1-28.2,25.33,19.05,19.05,0,0,1-8.18-11.74A19.58,19.58,0,0,1,65,113.25Zm6.36,9.51a10.78,10.78,0,0,0,10.72,10.77,10.74,10.74,0,0,0,0-21.48A10.78,10.78,0,0,0,71.34,122.76Z" />
    <path
        d="M141.94,61.77c.1-1,.19-1.91.3-2.86a.67.67,0,0,1,.72-.67,8.38,8.38,0,0,0,1.2-.21,2.92,2.92,0,0,0,2.49-2.51,24.88,24.88,0,0,0,.4-3.85q0-12.93,0-25.88a18.09,18.09,0,0,0-.21-2.65,3.42,3.42,0,0,0-3.28-3.33c-.36-.06-.72-.1-1.1-.15a3.62,3.62,0,0,1-.21-.67c-.09-.91-.16-1.83-.24-2.82h2.79c4.29,0,8.59,0,12.88,0,5-.07,9.93.05,14.7,1.66a36,36,0,0,1,4.78,2.05,14.31,14.31,0,0,1,7.27,9,26.42,26.42,0,0,1,1.11,6.43A33.14,33.14,0,0,1,184.71,46c-2,7.24-6.73,11.83-13.75,14.14a35.89,35.89,0,0,1-11.05,1.62c-5.88,0-11.77.1-17.65.15A1.69,1.69,0,0,1,141.94,61.77ZM155.4,20.13c0,.28,0,.53,0,.79q0,15.72,0,31.44a14.15,14.15,0,0,0,.4,3,3.13,3.13,0,0,0,2.45,2.46,5.74,5.74,0,0,0,1.53.24,32.84,32.84,0,0,0,5-.25c5.48-1,9.28-4,10.9-9.5a29.5,29.5,0,0,0,1.11-7.22,32.92,32.92,0,0,0-.77-9.49,15.12,15.12,0,0,0-4.92-8.24,17.4,17.4,0,0,0-12.52-3.87A7.33,7.33,0,0,0,155.4,20.13Z" />
    <path
        d="M284.37,31.55c-.07-1.16-.15-2.31-.22-3.5h6.13c3.37,0,6.73-.07,10.1-.09,5.18,0,10.25.56,15,2.77a11.59,11.59,0,0,1,6.86,8.83,22.41,22.41,0,0,1-.69,11.71,11.81,11.81,0,0,1-6.16,6.95,33,33,0,0,1-14.75,3.5c-5.15,0-10.29.06-15.43.09h-1.1a11.43,11.43,0,0,1,.34-3.55l1.75-.4a2.45,2.45,0,0,0,2-2,17.67,17.67,0,0,0,.32-3.07q0-8,0-16a18.25,18.25,0,0,0-.24-2.65A2.45,2.45,0,0,0,286.23,32Zm12.34.34c0,.39,0,.68,0,1,0,6.78,0,13.55,0,20.33a11.84,11.84,0,0,0,.18,1.87,3.12,3.12,0,0,0,3.14,3,21.72,21.72,0,0,0,5.86-.24,8.83,8.83,0,0,0,7.69-6.88,21.93,21.93,0,0,0,.36-9.9,10,10,0,0,0-5-7.39,15.8,15.8,0,0,0-6.74-2A15.48,15.48,0,0,0,296.71,31.89Z" />
    <path
        d="M187.8,116.08a24,24,0,0,1-10-1.84c-6.39-2.77-10.16-8.33-10-15.82a16.06,16.06,0,0,1,4.28-11.13,17.71,17.71,0,0,1,9.16-5.13,25.87,25.87,0,0,1,16.85,1.27c6,2.72,9.17,7.5,9.5,14.09a16.66,16.66,0,0,1-3.79,12,18.14,18.14,0,0,1-9.73,5.84A23.37,23.37,0,0,1,187.8,116.08Zm11.09-16.54a18,18,0,0,0-1.56-7.66,11.3,11.3,0,0,0-12.51-6.7,8.92,8.92,0,0,0-7.3,6.37,18.51,18.51,0,0,0,.95,14.65,11.42,11.42,0,0,0,4.13,4.56c4.5,2.89,12.67,2.66,15.38-5.32A18.23,18.23,0,0,0,198.89,99.54Z" />
    <path
        d="M160.16,72.74c-.25,3.69-.48,7.12-.72,10.7a9.58,9.58,0,0,1-4.27.57c-.09-1-.14-1.87-.29-2.77a23.73,23.73,0,0,0-.69-3.14,7,7,0,0,0-5.63-4.92,14.5,14.5,0,0,0-7.67.52,11.06,11.06,0,0,0-5.81,4.6,19.65,19.65,0,0,0-3,8.16A29.1,29.1,0,0,0,133.56,101a16.73,16.73,0,0,0,4.85,7.07,14.44,14.44,0,0,0,11.1,3.2,23.18,23.18,0,0,0,9.61-3.19l.49-.25.21,0a4.39,4.39,0,0,1,1.25,2c.22.51-.17.73-.49,1a25,25,0,0,1-23,4.3c-6.47-2-10.74-6.47-13.14-12.75a26.06,26.06,0,0,1-1.63-8.57,27.31,27.31,0,0,1,.83-8.36c2.26-7.88,7.4-12.91,15.28-15.07a28.29,28.29,0,0,1,15.87.53C156.65,71.36,158.42,72.11,160.16,72.74Z" />
    <path
        d="M244.47,37.31v1.08c0,4.4,0,8.81,0,13.22a24.89,24.89,0,0,0,.21,3c.29,2.2,1.16,3.07,3.37,3.47.25,0,.49.12.79.2a10.54,10.54,0,0,1,.22,1.31c0,.7,0,1.4,0,2.16H236.34a6.39,6.39,0,0,1,.25-3.51l1-.2a3.12,3.12,0,0,0,2.84-2.7,32.56,32.56,0,0,0,.39-4.52c0-5.63,0-11.26,0-16.89,0-1.19-.32-1.64-1.52-1.92-.89-.21-1.82-.29-2.77-.44a8.48,8.48,0,0,1-.37-3.52h2.93c2.3,0,4.59,0,6.89-.06a2,2,0,0,1,1.7.76q9.13,10.4,18.29,20.74l1.17,1.28c0-.45.09-.69.09-.93,0-3.7,0-7.4,0-11.11a34.91,34.91,0,0,0-.35-4.08,3.16,3.16,0,0,0-2.76-2.79l-1.44-.29c-.09-.91-.18-1.75-.24-2.59a7.33,7.33,0,0,1,0-.91h12.25c-.07,1.17-.14,2.3-.2,3.46-.42.11-.73.2-1.05.27a2.53,2.53,0,0,0-2.16,2.11,24.23,24.23,0,0,0-.43,4.07c0,7.44,0,14.89,0,22.33v1.36a7.59,7.59,0,0,1-3.4.51c-.29,0-.61-.37-.85-.64q-4.07-4.47-8.11-9L245.32,37.88c-.2-.22-.38-.45-.57-.68Z" />
    <path
        d="M216.71,113.13c.2-2.79.4-5.47.6-8.31a12.45,12.45,0,0,1,4.37-.57c.08.42.16.8.23,1.19.64,3.65,2.36,5.5,6,6.26a15.3,15.3,0,0,0,7.15-.15,7.75,7.75,0,0,0,2.49-1.15,2.67,2.67,0,0,0,.33-4.24,5.22,5.22,0,0,0-1.53-1.07c-2-.86-4-1.64-6.06-2.45s-4-1.55-6-2.38a13,13,0,0,1-4.55-3.3,9.1,9.1,0,0,1-.07-11.8,10.4,10.4,0,0,1,4.4-2.69,23.35,23.35,0,0,1,8.43-1,32.05,32.05,0,0,1,8.09,1.27c.7.2,1.38.5,2,.73.13,2.6.25,5.06.38,7.61a10.48,10.48,0,0,1-4.3.92c-.14-.4-.26-.7-.36-1-1.24-4.08-3.9-6-8.68-5.77a10.09,10.09,0,0,0-3.34.72c-2.36,1-2.73,3.45-.83,5.16a4.93,4.93,0,0,0,1.4.9c1.87.78,3.77,1.51,5.66,2.24,2.14.83,4.29,1.62,6.41,2.47a14.64,14.64,0,0,1,4.17,2.7c3.87,3.39,3.31,9.86-.2,13a12.55,12.55,0,0,1-5.91,2.9,33.8,33.8,0,0,1-20.1-2A.74.74,0,0,1,216.71,113.13Z" />
    <path
        d="M228.4,58.18c.11.73.23,1.31.27,1.89s0,1.09,0,1.69H212.93a7.63,7.63,0,0,1,.28-3.53c.35-.11.74-.21,1.12-.34,1.6-.5,1.94-1.17,1.32-2.74-.38-1-.85-1.89-1.29-2.85-2.18,0-4.33,0-6.47,0-2.4.07-4.8.27-7.2.37-.69,0-1.12.23-1.3.91a14.65,14.65,0,0,0-.51,1.8A2.08,2.08,0,0,0,200.65,58l.8.2a9.87,9.87,0,0,1,.4,3.53H190.91a8.55,8.55,0,0,1,.25-3.07.79.79,0,0,1,.67-.64,3.48,3.48,0,0,0,2.29-1.8c.6-1,1.17-2.06,1.67-3.13q5.69-12,11.3-24.11a1.78,1.78,0,0,1,1.56-1.14c2.14-.3,2.15-.3,3.12,1.63Q218,41.78,224.18,54.06c.25.5.53,1,.81,1.45C225.76,56.82,226.65,58,228.4,58.18Zm-15.64-9.13L207,36.5c-1.71,3.33-5.28,11.81-5.29,12.55Z" />
    <path
        d="M328.8,31.5c-.09-1.15-.18-2.27-.27-3.46H345a12.1,12.1,0,0,1-.31,3.44c-.38.1-.77.18-1.15.31A1.62,1.62,0,0,0,342.3,34a6.51,6.51,0,0,0,.48,1.12l5.86,11,.21.27a7.59,7.59,0,0,0,.46-.7q2.67-5.06,5.32-10.12a10.09,10.09,0,0,0,.76-1.83,1.35,1.35,0,0,0-1-1.87,11.11,11.11,0,0,0-1.3-.28,7.14,7.14,0,0,1-.48-3.5h11a11.33,11.33,0,0,1-.27,3.34c-.09.07-.14.14-.2.15a6.63,6.63,0,0,0-4.69,3.74c-1.33,2.44-2.61,4.89-3.92,7.34s-2.54,4.77-3.78,7.16a3,3,0,0,0-.34,1.37c0,1.36.07,2.73.21,4.09A2.73,2.73,0,0,0,353,57.8c.79.16,1.59.29,2.49.46.14,1.15.28,2.27.43,3.48H336.57a5.89,5.89,0,0,1,.45-3.52c.79-.12,1.63-.22,2.46-.38,1.81-.35,2.37-.86,2.59-2.67a40.72,40.72,0,0,0,.16-4.42,2,2,0,0,0-.33-.92q-4.38-7.66-8.78-15.31C332,32.54,331.4,32.15,328.8,31.5Z" />
    <path
        d="M279.77,112.13a7.3,7.3,0,0,1,.43,3.4H260.92a7.57,7.57,0,0,1,.36-3.39c.78-.11,1.54-.2,2.3-.34a3,3,0,0,0,2.88-2.87,14.92,14.92,0,0,0,.19-2.32c0-6.66,0-13.33,0-20,0-.36,0-.73-.06-1.16a14.76,14.76,0,0,0-5.32.38,4.5,4.5,0,0,0-2.84,2.5c-.46,1-.81,2.14-1.21,3.23a6,6,0,0,1-3.94-.57c.39-3.06.77-6.09,1.15-9.18H287c.29,3.05.57,6.08.86,9.21a9.38,9.38,0,0,1-4.13.65c-.13-.62-.22-1.16-.34-1.69-.68-2.91-2-4.19-5-4.51a31.3,31.3,0,0,0-3.5,0c0,.38-.09.7-.09,1,0,6.92,0,13.85,0,20.77a15.18,15.18,0,0,0,.22,2.32,2.56,2.56,0,0,0,2.22,2.18C278.05,111.91,278.89,112,279.77,112.13Z" />
    <path d="M61.14,64.05a4.52,4.52,0,1,1-4.5-4.49A4.44,4.44,0,0,1,61.14,64.05Z" />
    <path d="M61.77,32.82a4.45,4.45,0,0,1-4.46,4.55,4.54,4.54,0,1,1,4.46-4.55Z" />
    <path d="M56.68,53a4.51,4.51,0,1,1,4.53-4.45A4.42,4.42,0,0,1,56.68,53Z" />
    <path
        d="M294.66,129.83a4.64,4.64,0,0,1,.6-.1c.29,0,.58,0,1,.05.45,1.65.9,3.28,1.32,4.92s.84,3.29,1.19,4.68l2.69-8.9a2.13,2.13,0,0,1,.18-.52.47.47,0,0,1,.82,0,3.51,3.51,0,0,1,.26.73c.7,2.26,1.41,4.52,2.09,6.78.2.66.31,1.35.5,2.2l2.48-9.9h1.43c-1.16,4.27-2.3,8.45-3.43,12.59-.59.28-.91.13-1.06-.42l-2.52-8.85a3.62,3.62,0,0,0-.2-.44c-.9,3-1.78,6-2.68,9-.11.35-.1.86-.71.82s-.5-.45-.6-.79c-.36-1.24-.71-2.49-1.06-3.73-.64-2.28-1.27-4.56-1.91-6.84C294.9,130.73,294.78,130.31,294.66,129.83Z" />
    <path
        d="M231.44,129.85a1,1,0,0,1,1.48.56c1.36,2.29,2.75,4.56,4.17,6.9a14.77,14.77,0,0,1,.72-1.51c1-1.8,2.12-3.57,3.13-5.38a1.08,1.08,0,0,1,1.42-.63,114.29,114.29,0,0,1,.06,12.45h-1.33c0-1.6,0-3.21,0-4.83s0-3.22,0-5c-1.25,2.51-2.59,4.77-4,7.13a10.72,10.72,0,0,1-1.57-2.28c-.49-.74-.94-1.51-1.39-2.27s-.86-1.53-1.36-2.41v9.64h-1.27Z" />
    <path
        d="M302.28,69.83a79.14,79.14,0,0,0-.41,12.71l-3.07-1.23c-.46-.18-.5-.61-.58-1a56.32,56.32,0,0,1-.93-8.68c0-1-.06-1.92-.07-2.88,0-.28,0-.57.07-1Z" />
    <path
        d="M250.51,129.85c.71-.31,1.12,0,1.47.56,1.36,2.29,2.75,4.55,4.15,6.85.39-.74.79-1.54,1.24-2.31.86-1.51,1.78-3,2.61-4.51a1.16,1.16,0,0,1,1.6-.6v12.39a6.84,6.84,0,0,1-.7.06,7.05,7.05,0,0,1-.71-.07v-9.73l-4,7.08a9.2,9.2,0,0,1-1.6-2.27c-.49-.74-.94-1.51-1.39-2.28s-.86-1.51-1.37-2.4v9.59h-1.27Z" />
    <path
        d="M283.3,142.41c-.69.29-.92-.18-1.19-.57-1.51-2.11-3-4.22-4.5-6.34-.66-.93-1.26-1.89-1.95-2.93v9.67l-1.14,0a115.56,115.56,0,0,1-.13-12.59c.55-.35.85,0,1.14.42,1.66,2.32,3.34,4.62,5,6.94.53.74,1,1.53,1.47,2.25V129.8h1.31Z" />
    <path
        d="M228.92,136.07a28.45,28.45,0,0,1-.74,3.41,4.38,4.38,0,0,1-4.54,3,4.44,4.44,0,0,1-4.57-3,10,10,0,0,1,0-7,4.93,4.93,0,0,1,9.1,0A28.18,28.18,0,0,1,228.92,136.07Zm-1.69.08a9.36,9.36,0,0,0-.65-3.26,3.21,3.21,0,0,0-6.09.32,9.4,9.4,0,0,0,0,5.46,3.66,3.66,0,0,0,.41.9,3,3,0,0,0,2.93,1.62,3.18,3.18,0,0,0,3-2.54A23.26,23.26,0,0,0,227.23,136.15Z" />
    <path
        d="M331.13,129.79c1.14-.07,2.17-.15,3.2-.19a5.38,5.38,0,0,1,1.2.13,3.21,3.21,0,0,1,2.84,2.84,3.6,3.6,0,0,1-1.83,3.74l-.72.38c.64.94,1.26,1.83,1.85,2.75s1.12,1.79,1.7,2.72a1.68,1.68,0,0,1-2.29-.84c-.64-1.17-1.48-2.22-2.11-3.39a2.23,2.23,0,0,0-2.39-1.18v5.47h-1.45Zm1.47,5.81a6.34,6.34,0,0,0,2.84-.25,2.14,2.14,0,0,0,1.32-2.12,2,2,0,0,0-1.24-2,4.49,4.49,0,0,0-2.92-.1Z" />
    <path
        d="M188.71,129.78h1.47v7.46c0,.33,0,.66,0,1,.11,2.27,1.65,3.39,3.86,2.83a2.13,2.13,0,0,0,1.68-1.85,9.36,9.36,0,0,0,.14-1.76c0-2.11,0-4.22,0-6.33v-1.3h1.39c0,.34,0,.66,0,1,0,2.4,0,4.81,0,7.21a8.82,8.82,0,0,1,0,.89,3.64,3.64,0,0,1-3.8,3.55,8.2,8.2,0,0,1-2-.17,3.08,3.08,0,0,1-2.77-3C188.62,136.14,188.71,133,188.71,129.78Z" />
    <path
        d="M266.19,141h5.33v1.24H264.7V129.79h6.74c0,.36.05.71.08,1.19-1.78.16-3.51,0-5.37.11a34.41,34.41,0,0,0,0,4.06H271v1.3h-4.82Z" />
    <path
        d="M317.67,129.8v1.25h-5.28v4.08h4.83l.08,1.33h-4.92v4.47h5.32c.05.31.09.48.1.66a5.3,5.3,0,0,1,0,.63H311A115,115,0,0,1,311,129.8Z" />
    <path
        d="M329.26,142.25h-1.5c-.41-1.09-.82-2.16-1.25-3.29h-4.62l-1.22,3.28h-1.42c.12-.39.2-.7.32-1q2-5.4,4-10.79a4.23,4.23,0,0,1,.25-.62.48.48,0,0,1,.87,0,3,3,0,0,1,.17.41q2.17,5.81,4.34,11.62C329.23,142,329.23,142,329.26,142.25Zm-5.05-10c-.61,1.82-1.18,3.5-1.76,5.25H326C325.39,135.72,324.82,134,324.21,132.24Z" />
    <path
        d="M199.68,141.88l.46-1.23a5.74,5.74,0,0,0,.86.22,24.72,24.72,0,0,0,3.08.24,2,2,0,0,0,.91-3.74c-.65-.42-1.39-.69-2.05-1.08a10.09,10.09,0,0,1-2-1.33,3.09,3.09,0,0,1,1.32-5.23,8.45,8.45,0,0,1,5.06.28l-.4,1.23c-.82-.14-1.58-.3-2.34-.37a6.1,6.1,0,0,0-1.54,0,1.68,1.68,0,0,0-1.44,1.23,1.6,1.6,0,0,0,.64,1.87c.66.45,1.39.83,2.09,1.23a18.75,18.75,0,0,1,1.64.93,3.36,3.36,0,0,1-1.16,6.17A8.39,8.39,0,0,1,199.68,141.88Z" />
    <path
        d="M293.38,130l-.44,1.2c-.92-.14-1.75-.31-2.58-.38a4.21,4.21,0,0,0-1.54.14,1.65,1.65,0,0,0-.68,2.88,15.1,15.1,0,0,0,2.25,1.39,14.43,14.43,0,0,1,2.2,1.45,3.21,3.21,0,0,1-.93,5.33,7.89,7.89,0,0,1-5.94-.13l.45-1.23c.29.06.52.12.77.15a20.9,20.9,0,0,0,2.84.31,2.1,2.1,0,0,0,2.26-1.58c.21-1-.19-1.76-1.33-2.42-.58-.33-1.21-.55-1.79-.88A9.73,9.73,0,0,1,287,135a3.09,3.09,0,0,1,1.45-5.3A8.75,8.75,0,0,1,293.38,130Z" />
    <path
        d="M186.17,130l-.28,1.15c-.61-.09-1.17-.21-1.75-.26a3.81,3.81,0,0,0-4.49,3.17,8.15,8.15,0,0,0,0,3.74,4.12,4.12,0,0,0,5.46,3.26l.93-.28.34,1a3.36,3.36,0,0,1-.49.32,5.48,5.48,0,0,1-7.73-3.64,8.75,8.75,0,0,1,.27-5.67,5,5,0,0,1,4.59-3.29A6.17,6.17,0,0,1,186.17,130Z" />
    <path d="M214.13,142.25h-1.5V131.06h-3.91V129.8H218a3.69,3.69,0,0,1,.06.55c0,.18,0,.36-.06.69h-3.83Z" />
</svg>